<?xml version="1.0" encoding="UTF-8"?>
<svg version="1.1" xmlns="http://www.w3.org/2000/svg" width="1280" height="1280">
<path d="M0 0 C2.17706299 -0.37473011 2.17706299 -0.37473011 4.93457031 -0.3742218 C5.97778442 -0.38123611 7.02099854 -0.38825043 8.0958252 -0.39547729 C9.24498413 -0.38783356 10.39414307 -0.38018982 11.578125 -0.37231445 C12.78464722 -0.37596512 13.99116943 -0.37961578 15.23425293 -0.38337708 C18.54841707 -0.39010784 21.86202263 -0.38334915 25.1761322 -0.37004495 C28.63988299 -0.3587483 32.1036189 -0.36283657 35.56738281 -0.36479187 C41.38481473 -0.36567542 47.20213025 -0.35458191 53.01953125 -0.33618164 C59.75082239 -0.31501303 66.48194297 -0.31150375 73.21326065 -0.3177436 C79.68138131 -0.32343311 86.14944174 -0.3177965 92.61755371 -0.30657005 C95.37350577 -0.30191856 98.12942105 -0.30105258 100.88537598 -0.3031559 C104.73094057 -0.3053847 108.57634207 -0.29094821 112.421875 -0.2746582 C113.57103394 -0.27713562 114.72019287 -0.27961304 115.9041748 -0.28216553 C116.94738892 -0.27508072 117.99060303 -0.26799591 119.06542969 -0.26069641 C120.43039581 -0.25761711 120.43039581 -0.25761711 121.82293701 -0.25447559 C124 0 124 0 126 2 C126.18729753 4.56927031 126.25574642 7.02873977 126.23046875 9.59765625 C126.23001053 10.34712021 126.22955231 11.09658417 126.2290802 11.86875916 C126.22605811 13.45329369 126.21817306 15.03782526 126.20581055 16.62231445 C126.18754683 19.05625858 126.18530089 21.48982262 126.18554688 23.92382812 C126.18063201 25.46094081 126.17480382 26.9980509 126.16796875 28.53515625 C126.16685593 29.26742935 126.1657431 29.99970245 126.16459656 30.75416565 C126.11605238 35.88394762 126.11605238 35.88394762 125 37 C122.29161914 37.09514592 119.60881487 37.12554932 116.90014648 37.11352539 C116.05143982 37.11367142 115.20273315 37.11381744 114.32830811 37.1139679 C111.50921109 37.11326848 108.69017929 37.10547478 105.87109375 37.09765625 C103.92196183 37.09579217 101.97282945 37.09436822 100.0236969 37.09336853 C94.88293168 37.08954255 89.74219453 37.07971159 84.60144043 37.06866455 C79.35994852 37.05845215 74.1184521 37.05387128 68.87695312 37.04882812 C58.58462108 37.03808939 48.29231726 37.02049195 38 37 C38 46.9 38 56.8 38 67 C40.00320312 66.83886719 42.00640625 66.67773438 44.0703125 66.51171875 C56.27024388 65.67861967 68.50993362 65.81271098 80.73193359 65.81469727 C84.21991909 65.81480042 87.70770795 65.80095409 91.19564629 65.78392506 C94.54449691 65.77019562 97.89330905 65.7707199 101.2421875 65.76953125 C102.49409882 65.76234573 103.74601013 65.75516022 105.03585815 65.74775696 C106.18530914 65.75083359 107.33476013 65.75391022 108.51904297 65.75708008 C109.53223602 65.75565506 110.54542908 65.75423004 111.58932495 65.75276184 C114 66 114 66 116 68 C116.18721852 70.49743862 116.25579767 72.88188683 116.23046875 75.37890625 C116.23001053 76.10617416 116.22955231 76.83344208 116.2290802 77.58274841 C116.22605836 79.12020499 116.21817405 80.65765852 116.20581055 82.19506836 C116.18754573 84.55658735 116.1853009 86.91771461 116.18554688 89.27929688 C116.18063203 90.77083674 116.17480386 92.26237394 116.16796875 93.75390625 C116.16685593 94.46430557 116.1657431 95.1747049 116.16459656 95.90663147 C116.11605365 100.88394635 116.11605365 100.88394635 115 102 C112.59651714 102.09496708 110.22189018 102.12558862 107.81811523 102.11352539 C106.6913588 102.11374443 106.6913588 102.11374443 105.5418396 102.1139679 C103.04739541 102.11326863 100.55302497 102.10547564 98.05859375 102.09765625 C96.33366436 102.09579212 94.60873443 102.09436819 92.88380432 102.09336853 C88.33487497 102.08954297 83.78597733 102.07971238 79.23706055 102.06866455 C74.59879994 102.05845124 69.96053423 102.05387108 65.32226562 102.04882812 C56.21482754 102.03809013 47.10742137 102.02049304 38 102 C38 112.56 38 123.12 38 134 C40.66054443 133.99476318 43.32108887 133.98952637 46.06225586 133.98413086 C54.83133771 133.9675958 63.60042023 133.95652912 72.36951351 133.94818783 C77.68865213 133.94295878 83.00777484 133.93586073 88.3269043 133.92456055 C93.45563985 133.91373245 98.58436006 133.90772333 103.71310616 133.90512276 C105.67441614 133.90326837 107.63572524 133.89964749 109.59702873 133.89426994 C112.33415447 133.88706054 115.07121597 133.88600901 117.80834961 133.88647461 C118.62761932 133.88287933 119.44688904 133.87928406 120.29098511 133.87557983 C125.88594784 133.88594784 125.88594784 133.88594784 127 135 C127.10082764 137.43660446 127.13972603 139.84424701 127.1328125 142.28125 C127.13376923 143.00993286 127.13472595 143.73861572 127.13571167 144.48937988 C127.13639335 146.0327971 127.13453988 147.57621717 127.13037109 149.11962891 C127.12502262 151.489974 127.13031642 153.86012959 127.13671875 156.23046875 C127.13605797 157.72656292 127.1347768 159.22265697 127.1328125 160.71875 C127.13483673 161.43228638 127.13686096 162.14582275 127.13894653 162.88098145 C127.11495191 167.88504809 127.11495191 167.88504809 126 169 C124.35741299 169.09825968 122.71058667 169.12631963 121.06506348 169.12698364 C119.99653641 169.12980347 118.92800934 169.13262329 117.82710266 169.13552856 C116.64472519 169.13350433 115.46234772 169.1314801 114.24414062 169.12939453 C113.00689743 169.13114685 111.76965424 169.13289917 110.49491882 169.13470459 C107.09210559 169.13836286 103.6893528 169.13748962 100.28654289 169.1343255 C96.73289786 169.13180159 93.17925548 169.13413953 89.62561035 169.13571167 C83.65681492 169.13753327 77.68803184 169.1351273 71.71923828 169.13037109 C64.80905432 169.12492849 57.89889985 169.12669115 50.9887166 169.1321975 C45.06600965 169.13672889 39.14331159 169.13737905 33.22060347 169.13475883 C29.67874639 169.1331962 26.13690319 169.13300191 22.595047 169.13629532 C18.64863937 169.13970828 14.70226504 169.13498386 10.75585938 169.12939453 C8.98229317 169.13243088 8.98229317 169.13243088 7.17289734 169.13552856 C6.10437027 169.13270874 5.0358432 169.12988892 3.93493652 169.12698364 C3.00061546 169.12660662 2.0662944 169.12622959 1.10366058 169.12584114 C-1 169 -1 169 -2 168 C-2.10129172 165.88058251 -2.13077876 163.75772933 -2.13371277 161.63589478 C-2.13597833 160.96337091 -2.13824388 160.29084704 -2.14057809 159.59794366 C-2.14694543 157.32781123 -2.14608699 155.05773807 -2.14526367 152.78759766 C-2.14825349 151.16672182 -2.1516556 149.5458467 -2.15544128 147.92497253 C-2.1643042 143.50967809 -2.16662037 139.094403 -2.16725707 134.67910051 C-2.16820439 130.99855988 -2.17188068 127.3180238 -2.17542917 123.63748491 C-2.18358265 114.95623761 -2.18601261 106.27500069 -2.18530273 97.59375 C-2.1847019 88.627296 -2.1952528 79.66090215 -2.2110464 70.69446337 C-2.2241066 63.00698361 -2.22948726 55.31952353 -2.22884732 47.63203275 C-2.22859186 43.03598442 -2.23146946 38.4399895 -2.24202538 33.84395218 C-2.2516807 29.52169036 -2.25180326 25.19953327 -2.24450874 20.87726784 C-2.24345965 19.28854406 -2.24584493 17.69981385 -2.2518692 16.11110115 C-2.25954662 13.94663366 -2.25497286 11.7825317 -2.24723816 9.61807251 C-2.24778293 8.40536997 -2.24832769 7.19266743 -2.24888897 5.94321632 C-2 3 -2 3 0 0 Z " fill="#FEFEFE" transform="translate(211,671)"/>
<path d="M0 0 C0.80893707 -0.01140015 1.61787415 -0.02280029 2.45132446 -0.0345459 C4.16443647 -0.05345137 5.87762131 -0.06651609 7.59082031 -0.07421875 C10.21027764 -0.09362933 12.82659287 -0.15564832 15.4453125 -0.21875 C17.10935635 -0.23181091 18.77342266 -0.24231153 20.4375 -0.25 C21.61111588 -0.28704041 21.61111588 -0.28704041 22.80844116 -0.3248291 C25.03271484 -0.30664062 25.03271484 -0.30664062 28.8515625 0.40625 C32.04889371 4.14424991 33.72644414 8.15018949 35.4765625 12.71875 C35.99557189 14.05358844 36.51514584 15.38820745 37.03515625 16.72265625 C37.32116699 17.46273926 37.60717773 18.20282227 37.90185547 18.96533203 C39.74747041 23.70889454 41.64706601 28.43104211 43.5390625 33.15625 C43.96106934 34.21150879 44.38307617 35.26676758 44.81787109 36.35400391 C53.76980646 58.81556387 53.76980646 58.81556387 63.1640625 81.09375 C65.12376973 85.60718337 66.90647673 90.16328349 68.6015625 94.78125 C71.42534861 102.4627381 74.56862352 109.99542981 77.74145508 117.53833008 C81.88861608 127.42640536 85.86902991 137.37803791 89.82861328 147.34228516 C90.30927246 148.55062012 90.78993164 149.75895508 91.28515625 151.00390625 C91.7322998 152.13199707 92.17944336 153.26008789 92.64013672 154.42236328 C93.60636032 156.80228768 94.62475472 159.13317516 95.69921875 161.46484375 C96.85904558 164.42535087 96.94873418 166.28127471 96.8515625 169.40625 C91.08588947 169.55461451 85.32132782 169.66347333 79.55419922 169.73583984 C77.59273933 169.76600617 75.63141426 169.80694608 73.67041016 169.85888672 C70.85024788 169.93171116 68.03186865 169.96570652 65.2109375 169.9921875 C64.33475769 170.02315521 63.45857788 170.05412292 62.55584717 170.08602905 C61.73529846 170.08648224 60.91474976 170.08693542 60.06933594 170.08740234 C59.34985779 170.10072601 58.63037964 170.11404968 57.88909912 170.1277771 C55.8515625 169.40625 55.8515625 169.40625 51.8515625 163.40625 C48.5515625 154.82625 45.2515625 146.24625 41.8515625 137.40625 C9.1815625 136.91125 9.1815625 136.91125 -24.1484375 136.40625 C-24.6434375 139.37625 -24.6434375 139.37625 -25.1484375 142.40625 C-25.94873047 144.72045898 -25.94873047 144.72045898 -26.890625 146.90234375 C-27.23480469 147.70865234 -27.57898438 148.51496094 -27.93359375 149.34570312 C-28.29324219 150.17005859 -28.65289063 150.99441406 -29.0234375 151.84375 C-29.55130859 153.07448242 -29.55130859 153.07448242 -30.08984375 154.33007812 C-30.78003817 155.93753835 -31.47362047 157.54354897 -32.17089844 159.14794922 C-33.07644255 161.23992801 -33.96103465 163.33972858 -34.84375 165.44140625 C-36.1484375 168.40625 -36.1484375 168.40625 -37.1484375 169.40625 C-40.10549071 169.49493299 -43.03908806 169.52145296 -45.99609375 169.50390625 C-47.32573402 169.50178383 -47.32573402 169.50178383 -48.68223572 169.49961853 C-51.52517004 169.49400215 -54.36802681 169.48144691 -57.2109375 169.46875 C-59.13346241 169.46373711 -61.05598854 169.45917384 -62.97851562 169.45507812 C-67.70185299 169.44402741 -72.42513208 169.42675183 -77.1484375 169.40625 C-78.30871808 165.92540827 -78.02283561 165.46953538 -76.59375 162.2578125 C-76.23055664 161.42765625 -75.86736328 160.5975 -75.49316406 159.7421875 C-75.0906543 158.84757813 -74.68814453 157.95296875 -74.2734375 157.03125 C-73.43732187 155.1276824 -72.60138963 153.22403424 -71.765625 151.3203125 C-71.33217773 150.34223633 -70.89873047 149.36416016 -70.45214844 148.35644531 C-68.40315374 143.71973146 -66.39740671 139.06471 -64.3984375 134.40625 C-64.01840576 133.5208252 -63.63837402 132.63540039 -63.24682617 131.72314453 C-60.37870145 125.01045853 -57.70162342 118.24514086 -55.1484375 111.40625 C-54.15213629 108.75863253 -53.1528127 106.11219587 -52.15063477 103.46679688 C-51.4609497 101.64619277 -50.77377576 99.82463461 -50.08959961 98.00195312 C-48.23300636 93.09560718 -46.24427229 88.2853838 -44.08374023 83.50537109 C-42.7008809 80.40178858 -41.45798394 77.25454638 -40.2109375 74.09375 C-37.09023803 66.23453802 -33.92922515 58.39541813 -30.4921875 50.66796875 C-27.17815267 43.21024318 -24.09097846 35.73404531 -21.28198242 28.07104492 C-19.49591046 23.23444119 -17.50013111 18.54775698 -15.30859375 13.8828125 C-13.80939556 10.68250391 -12.42505865 7.43591594 -11.04296875 4.18359375 C-8.59696745 -0.67636517 -4.82005235 0.05209333 0 0 Z M8.8515625 48.40625 C6.73608391 54.03076128 4.62500693 59.65689228 2.51953125 65.28515625 C0.93251529 69.52724697 -0.66158943 73.7665049 -2.26580811 78.00212097 C-3.41913791 81.05163312 -4.56414471 84.10427475 -5.7109375 87.15625 C-6.37295166 88.89515503 -6.37295166 88.89515503 -7.04833984 90.66918945 C-7.45391113 91.75288818 -7.85948242 92.83658691 -8.27734375 93.953125 C-8.63900635 94.91057617 -9.00066895 95.86802734 -9.37329102 96.85449219 C-10.34220765 99.59965301 -10.34220765 99.59965301 -10.1484375 103.40625 C3.0515625 103.40625 16.2515625 103.40625 29.8515625 103.40625 C29.0635176 99.46602552 28.17736139 96.43797617 26.70703125 92.765625 C24.56715956 87.30860594 22.54646263 81.82213181 20.58984375 76.296875 C20.02280231 74.70311936 19.45574489 73.10936941 18.88867188 71.515625 C18.01633699 69.06108249 17.14632056 66.60580848 16.28198242 64.1484375 C15.43280717 61.73720495 14.57464833 59.32933415 13.71484375 56.921875 C13.45649246 56.18036194 13.19814117 55.43884888 12.93196106 54.67486572 C11.78942857 50.8246036 11.78942857 50.8246036 8.8515625 48.40625 Z " fill="#FEFEFE" transform="translate(564.1484375,670.59375)"/>
<path d="M0 0 C5.64160136 -0.12351098 11.28241776 -0.2142963 16.92504883 -0.2746582 C18.8447846 -0.2998175 20.76442444 -0.33394885 22.68383789 -0.37719727 C25.44180946 -0.43778853 28.19851609 -0.46619452 30.95703125 -0.48828125 C31.81649857 -0.51408768 32.67596588 -0.5398941 33.56147766 -0.56648254 C35.81501985 -0.56754557 37.80785588 -0.52276814 40 0 C41.98022461 2.30712891 41.98022461 2.30712891 43 5 C43.44859375 6.17949219 43.8971875 7.35898437 44.359375 8.57421875 C44.82747092 9.94376435 45.29074983 11.31496285 45.75 12.6875 C47.80842186 18.6812731 49.97910948 24.60797145 52.3125 30.5 C57.73588686 44.2691501 62.60553533 58.24524972 67.55078125 72.19140625 C68.40844261 74.606917 69.26651343 77.02228241 70.125 79.4375 C70.54305908 80.6138501 70.96111816 81.7902002 71.3918457 83.00219727 C74.07873069 90.52473518 76.86140844 97.99941727 79.84423828 105.40991211 C81.50492717 109.56475007 82.83929196 113.68640713 84 118 C87.50873754 108.57226752 90.97186972 99.13561272 94.25 89.625 C98.44647371 77.50158476 103.07122526 65.53912729 107.64648438 53.55517578 C109.65758602 48.27276918 111.64314205 42.98093337 113.625 37.6875 C114.16241821 36.25591553 114.16241821 36.25591553 114.71069336 34.79541016 C116.65271197 29.61815413 118.57834778 24.4352771 120.48828125 19.24609375 C120.89804199 18.13854736 121.30780273 17.03100098 121.72998047 15.88989258 C122.51872054 13.75729635 123.30309615 11.62307945 124.08251953 9.48706055 C124.61208252 8.05873901 124.61208252 8.05873901 125.15234375 6.6015625 C125.46163818 5.75932129 125.77093262 4.91708008 126.08959961 4.04931641 C127 2 127 2 129 0 C131.9292303 -0.18768653 134.76228397 -0.25553641 137.69140625 -0.23046875 C138.98207253 -0.22978142 138.98207253 -0.22978142 140.29881287 -0.2290802 C142.11873757 -0.22605705 143.93865967 -0.21816888 145.75854492 -0.20581055 C148.55461724 -0.18755148 151.35035866 -0.18530085 154.14648438 -0.18554688 C155.91146122 -0.1806319 157.6764358 -0.17480367 159.44140625 -0.16796875 C160.70386925 -0.16629951 160.70386925 -0.16629951 161.99183655 -0.16459656 C167.88395295 -0.11604705 167.88395295 -0.11604705 169 1 C168.67057042 8.19676936 166.19127742 14.15502754 163.4375 20.75 C162.519491 22.9960773 161.60152271 25.24217124 160.68359375 27.48828125 C160.22710449 28.59510254 159.77061523 29.70192383 159.30029297 30.84228516 C157.50714263 35.19688644 155.74891667 39.56498243 154 43.9375 C153.68490479 44.72237793 153.36980957 45.50725586 153.04516602 46.31591797 C150.24931201 53.30800363 147.5624575 60.34068505 144.875 67.375 C141.85929135 75.26822538 138.74630929 83.07475312 135.3515625 90.8125 C133.83883409 94.38009071 132.46778809 97.99115478 131.125 101.625 C127.99764534 110.08055337 124.66928266 118.44751635 121.29101562 126.80566406 C120.33266792 129.17688595 119.3756847 131.5486351 118.41992188 133.92089844 C116.97079378 137.51703857 115.51857152 141.1119173 114.06448364 144.70605469 C113.48403223 146.14162008 112.90432941 147.57748841 112.32540894 149.01367188 C111.50450788 151.04916266 110.68037411 153.08331677 109.85546875 155.1171875 C109.13846802 156.89005127 109.13846802 156.89005127 108.40698242 158.69873047 C104.77174894 167.22825106 104.77174894 167.22825106 103 169 C100.1156618 169.08865208 97.25537842 169.11521296 94.37109375 169.09765625 C93.07474754 169.09553383 93.07474754 169.09553383 91.75221252 169.09336853 C88.98060708 169.08775239 86.2090812 169.07519719 83.4375 169.0625 C81.5631522 169.05748708 79.68880315 169.05292381 77.81445312 169.04882812 C73.20960456 169.03777772 68.60481579 169.0205023 64 169 C61.7189514 164.52378513 59.52240007 160.0579546 57.625 155.40234375 C57.203396 154.36964355 56.78179199 153.33694336 56.34741211 152.27294922 C55.90276611 151.17225098 55.45812012 150.07155273 55 148.9375 C54.52506104 147.76719238 54.05012207 146.59688477 53.56079102 145.39111328 C49.40841438 135.11091144 45.40120625 124.77639737 41.41870117 114.42944336 C38.2739384 106.26297794 35.07569171 98.1200055 31.8125 90 C24.89483687 72.78176273 18.17947082 55.48872995 11.53271484 38.16430664 C9.26500657 32.26192376 6.97822573 26.36883266 4.625 20.5 C4.17382812 19.36949219 3.72265625 18.23898437 3.2578125 17.07421875 C2.42715224 15.04400253 1.56814343 13.02512852 0.6796875 11.01953125 C0.29039062 10.12621094 -0.09890625 9.23289062 -0.5 8.3125 C-0.8403125 7.56613281 -1.180625 6.81976562 -1.53125 6.05078125 C-2.14369375 3.37133986 -1.29077416 2.34733526 0 0 Z " fill="#FEFEFE" transform="translate(352,671)"/>
<path d="M0 0 C1.56047445 0.00015913 3.12095416 0.00585397 4.68139648 0.01586914 C5.91115456 0.01799156 5.91115456 0.01799156 7.16575623 0.02015686 C9.79470406 0.0257725 12.42356797 0.0383276 15.05249023 0.05102539 C16.8304838 0.05603838 18.60847869 0.06060163 20.38647461 0.06469727 C24.75434569 0.07574701 29.12215371 0.09302208 33.48999023 0.11352539 C36.13543969 6.09455223 35.75655556 12.0454651 35.71704102 18.45288086 C35.71733307 19.69246048 35.71762512 20.9320401 35.71792603 22.20918274 C35.71677419 25.5951796 35.70676689 28.98093042 35.69277811 32.36688375 C35.68024719 35.91028202 35.67909839 39.45368382 35.67672729 42.99710083 C35.67051945 49.70117505 35.65411809 56.40518378 35.63402832 63.10922921 C35.61164762 70.74403852 35.60067043 78.37885102 35.59063745 86.01368499 C35.56975122 101.71366967 35.53458882 117.41358907 35.48999023 133.11352539 C36.41484726 133.11130478 37.33970428 133.10908417 38.29258728 133.10679626 C46.98951611 133.08679626 55.68643726 133.07155275 64.38338375 133.06171322 C68.85504572 133.05648466 73.32668877 133.0493875 77.79833984 133.03808594 C82.11010996 133.0272561 86.42186182 133.02124835 90.73364449 133.01864815 C92.38235321 133.01679407 94.03106089 133.01317379 95.67976189 133.00779533 C97.98102895 133.00058361 100.28221963 132.9995345 102.58349609 133 C103.89587753 132.99777939 105.20825897 132.99555878 106.56040955 132.99327087 C109.48999023 133.11352539 109.48999023 133.11352539 110.48999023 134.11352539 C110.59086235 136.62276693 110.62971056 139.10388923 110.62280273 141.61352539 C110.62375946 142.3644043 110.62471619 143.1152832 110.6257019 143.88891602 C110.62638362 145.47941166 110.62452995 147.06991007 110.62036133 148.66040039 C110.6150129 151.10317194 110.62030657 153.5457596 110.62670898 155.98852539 C110.6260482 157.53019247 110.62476704 159.07185943 110.62280273 160.61352539 C110.62482697 161.34893555 110.6268512 162.0843457 110.62893677 162.84204102 C110.60494184 167.99857378 110.60494184 167.99857378 109.48999023 169.11352539 C108.00982629 169.20921115 106.5251075 169.23540807 105.04185486 169.23377991 C103.60097252 169.2358419 103.60097252 169.2358419 102.13098145 169.23794556 C101.06859253 169.23435028 100.00620361 169.230755 98.91162109 169.22705078 C97.24354149 169.22726982 97.24354149 169.22726982 95.54176331 169.22749329 C91.84610072 169.2267936 88.15048782 169.21899859 84.45483398 169.21118164 C81.9003553 169.20931766 79.34587626 169.20789366 76.79139709 169.20689392 C70.74237314 169.20345883 64.69337068 169.19556803 58.64435536 169.18554443 C51.7593387 169.17438222 44.8743212 169.16887257 37.98929775 169.163849 C23.82285193 169.15338539 9.65642207 169.13578662 -4.51000977 169.11352539 C-5.2339041 165.85857536 -5.63536683 162.84652397 -5.63699341 159.51409912 C-5.64122314 158.17118805 -5.64122314 158.17118805 -5.64553833 156.80114746 C-5.64250198 155.34460754 -5.64250198 155.34460754 -5.6394043 153.85864258 C-5.64115662 152.82471375 -5.64290894 151.79078491 -5.64471436 150.7255249 C-5.64913053 147.28713316 -5.64618627 143.84879272 -5.64282227 140.41040039 C-5.6434976 137.97902415 -5.64446953 135.54764798 -5.64572144 133.11627197 C-5.64719989 127.98481614 -5.64504728 122.85337764 -5.64038086 117.72192383 C-5.63481471 111.30296122 -5.63797573 104.88404124 -5.6438179 98.46508026 C-5.66353703 72.95338319 -5.55943616 47.44906801 -5.06469727 21.94165039 C-5.04528202 20.87491844 -5.02586678 19.80818649 -5.00586319 18.70912933 C-4.95039055 15.74904435 -4.88775937 12.78921842 -4.82202148 9.8293457 C-4.80570049 8.95256416 -4.7893795 8.07578262 -4.77256393 7.17243195 C-4.59894308 0.14874512 -4.59894308 0.14874512 0 0 Z " fill="#FEFEFE" transform="translate(679.510009765625,670.886474609375)"/>
<path d="M0 0 C0.85507141 -0.00570007 1.71014282 -0.01140015 2.59112549 -0.01727295 C4.39976788 -0.02668376 6.20842711 -0.03324127 8.01708984 -0.03710938 C10.71614808 -0.04669921 13.41440502 -0.07771082 16.11328125 -0.109375 C32.93270177 -0.21156539 49.02282569 1.8721919 65.015625 7.203125 C65.9442334 7.51008301 65.9442334 7.51008301 66.89160156 7.82324219 C84.4459524 13.72171567 104.71921794 22.83406671 117.015625 37.203125 C117.30186999 40.26360011 117.41193208 43.11626085 117.37890625 46.17578125 C117.37965401 47.49406166 117.37965401 47.49406166 117.38041687 48.838974 C117.37807718 50.69581363 117.3683548 52.55265647 117.35180664 54.40942383 C117.32818605 57.25826217 117.33124981 60.10616658 117.33789062 62.95507812 C117.33231484 64.7578181 117.32520559 66.56055413 117.31640625 68.36328125 C117.31731766 69.21849869 117.31822906 70.07371613 117.31916809 70.95484924 C117.2466564 76.9720936 117.2466564 76.9720936 115.015625 79.203125 C112.328125 79.890625 112.328125 79.890625 109.015625 79.203125 C106.31165269 76.4582719 104.21226276 73.3576573 102.015625 70.203125 C86.94689219 50.10112474 58.02627491 37.80050686 33.7355957 34.08227539 C2.62468771 30.06858655 -30.29932362 36.85698743 -55.46484375 56.13671875 C-67.73025019 65.42948722 -67.73025019 65.42948722 -76.97460938 77.28613281 C-80.33923789 80.49544563 -84.36484715 79.75256718 -88.83203125 79.69921875 C-89.79966904 79.70067398 -90.76730682 79.70212921 -91.76426697 79.70362854 C-93.80942802 79.70196858 -95.85460143 79.69039652 -97.8996582 79.66967773 C-101.03845969 79.64070268 -104.17557528 79.64907069 -107.31445312 79.66210938 C-109.29948741 79.65587283 -111.28451635 79.64748254 -113.26953125 79.63671875 C-114.2122438 79.63965439 -115.15495636 79.64259003 -116.12623596 79.64561462 C-116.99731491 79.63293045 -117.86839386 79.62024628 -118.76586914 79.60717773 C-119.53403458 79.60177475 -120.30220001 79.59637177 -121.09364319 79.59080505 C-122.984375 79.203125 -122.984375 79.203125 -124.984375 76.203125 C-114.8898004 55.33248553 -97.93609188 39.09481415 -78.984375 26.203125 C-78.29601562 25.7198877 -77.60765625 25.23665039 -76.8984375 24.73876953 C-71.37615669 20.92941842 -65.68747205 17.90356185 -59.609375 15.078125 C-58.20933228 14.42420776 -58.20933228 14.42420776 -56.78100586 13.75708008 C-39.05096831 5.55312092 -19.65597967 0.10427707 0 0 Z " fill="#1D98DC" transform="translate(591.984375,579.796875)"/>
<path d="M0 0 C-0.59309067 7.40087329 -1.74998638 14.59458082 -3.1875 21.875 C-3.51741943 23.56786133 -3.51741943 23.56786133 -3.85400391 25.29492188 C-5.67472887 34.5478283 -7.63372571 43.76894185 -9.62988281 52.98535156 C-11.46720242 61.47511538 -13.25047982 69.9744955 -14.99768066 78.4831543 C-15.43749775 80.62498902 -15.87836159 82.7666064 -16.31933594 84.90820312 C-17.68334862 91.54011714 -19.03753104 98.17380464 -20.36833191 104.81246948 C-29.93196683 152.50548489 -29.93196683 152.50548489 -42.6875 169.4375 C-43.29964355 170.25645752 -43.91178711 171.07541504 -44.54248047 171.91918945 C-55.1552109 185.96267575 -55.1552109 185.96267575 -60 190 C-61.32 190 -62.64 190 -64 190 C-64.04735815 162.69464169 -58.6686282 137.08288175 -52.11425781 110.74584961 C-49.44826903 100.01585418 -47.01683118 89.24539365 -44.6875 78.4375 C-44.52260071 77.67643951 -44.35770142 76.91537903 -44.18780518 76.1312561 C-41.94956005 65.78488723 -39.89958234 55.4137975 -38 45 C-42.70288048 47.97344228 -47.13213311 50.99120499 -51.25 54.75 C-54.98080866 58.13925576 -58.80295653 61.36774384 -62.75 64.5 C-63.56452637 65.16854004 -63.56452637 65.16854004 -64.39550781 65.85058594 C-66.95494383 67.85314405 -68.61811073 68.96284321 -71.890625 69.28125 C-72.58671875 69.1884375 -73.2828125 69.095625 -74 69 C-74.8709379 67.27921959 -75.72114558 65.54793677 -76.5625 63.8125 C-77.03816406 62.84957031 -77.51382813 61.88664063 -78.00390625 60.89453125 C-79.10701211 57.6890354 -79.0497929 56.18253005 -78 53 C-76.5625 51.1875 -76.5625 51.1875 -75 50 C-74.34 50 -73.68 50 -73 50 C-73 49.34 -73 48.68 -73 48 C-71.41796875 46.58984375 -71.41796875 46.58984375 -69.1875 44.9375 C-63.66840616 40.77181453 -58.33503689 36.39766592 -53 32 C-61.94899007 31.82171353 -70.82818658 32.33147863 -79.75588989 32.85641479 C-87.1681355 33.28313565 -94.58396739 33.6460891 -102 34 C-103.81685303 34.08677002 -103.81685303 34.08677002 -105.67041016 34.17529297 C-119.01459341 34.73240599 -130.73672674 33.29200441 -143.58447266 29.61816406 C-147.00172648 28.7436455 -150.46680992 28.22919036 -153.95776367 27.73583984 C-156 27 -156 27 -157.2824707 24.93212891 C-157.51925537 24.29452637 -157.75604004 23.65692383 -158 23 C-154.57120571 20.71413714 -152.23609229 20.33381636 -148.1875 19.625 C-146.71871714 19.36476872 -145.24996891 19.10434193 -143.78125 18.84375 C-142.99878906 18.70710937 -142.21632813 18.57046875 -141.41015625 18.4296875 C-139.02938629 18.00523905 -136.65538377 17.55376278 -134.28125 17.09375 C-118.36150838 14.04283051 -102.32965131 11.81629588 -86.27832031 9.59375 C-82.42145039 9.05959925 -78.56606263 8.51536425 -74.7109375 7.96875 C-67.47801524 6.94849406 -60.24061694 5.96400888 -53 5 C-52.20994568 4.89453857 -51.41989136 4.78907715 -50.605896 4.68041992 C-45.2938577 3.97277739 -39.98036518 3.27746342 -34.66513062 2.59423828 C-32.91479214 2.36815799 -31.16479694 2.13940085 -29.41519165 1.90771484 C-19.54291037 0.60396145 -9.97700816 -0.36271888 0 0 Z " fill="#1E99DD" transform="translate(789,545)"/>
<path d="M0 0 C1.50046875 0.00386719 1.50046875 0.00386719 3.03125 0.0078125 C4.0315625 0.00523437 5.031875 0.00265625 6.0625 0 C8.53125 0.1328125 8.53125 0.1328125 9.53125 1.1328125 C9.60304964 2.65209288 9.61517007 4.17448732 9.59375 5.6953125 C9.58472656 6.52160156 9.57570313 7.34789062 9.56640625 8.19921875 C9.55480469 8.83730469 9.54320312 9.47539063 9.53125 10.1328125 C12.17125 10.1328125 14.81125 10.1328125 17.53125 10.1328125 C19.16075412 14.25449939 19.79389601 16.83981607 18.53125 21.1328125 C15.56125 21.1328125 12.59125 21.1328125 9.53125 21.1328125 C10.02625 30.5378125 10.02625 30.5378125 10.53125 40.1328125 C12.84125 39.8028125 15.15125 39.4728125 17.53125 39.1328125 C20.23707788 42.96606867 20.85738618 45.45819399 20.53125 50.1328125 C17.16187701 52.16090032 14.49914912 52.43053798 10.59375 52.4453125 C9.57410156 52.46207031 8.55445313 52.47882812 7.50390625 52.49609375 C4.00818363 52.0688898 2.27524045 51.33821937 -0.46875 49.1328125 C-4.37547828 43.76000181 -3.81613191 38.11209369 -3.65625 31.7578125 C-3.63594727 30.22447266 -3.63594727 30.22447266 -3.61523438 28.66015625 C-3.58005217 26.15049201 -3.53082539 23.6419316 -3.46875 21.1328125 C-5.44875 21.1328125 -7.42875 21.1328125 -9.46875 21.1328125 C-9.46875 24.1028125 -9.46875 27.0728125 -9.46875 30.1328125 C-12.28125 30.4453125 -12.28125 30.4453125 -15.46875 30.1328125 C-17.78016604 27.28206606 -18.46875 25.8188674 -18.46875 22.1328125 C-21.82308109 23.08215149 -25.16121505 24.03030085 -28.46875 25.1328125 C-28.79875 33.7128125 -29.12875 42.2928125 -29.46875 51.1328125 C-31.83488456 52.31587978 -33.33655736 52.26635858 -35.96875 52.2578125 C-36.7628125 52.26039063 -37.556875 52.26296875 -38.375 52.265625 C-40.46875 52.1328125 -40.46875 52.1328125 -42.46875 51.1328125 C-42.46875 37.6028125 -42.46875 24.0728125 -42.46875 10.1328125 C-40.1290831 8.96297905 -38.63483473 8.9666884 -36.03125 8.9453125 C-35.24878906 8.93113281 -34.46632813 8.91695312 -33.66015625 8.90234375 C-31.46875 9.1328125 -31.46875 9.1328125 -28.46875 11.1328125 C-27.953125 10.6378125 -27.4375 10.1428125 -26.90625 9.6328125 C-23.53111872 7.55580864 -21.37074054 7.65362068 -17.46875 8.1328125 C-14.53125 10.1328125 -14.53125 10.1328125 -12.46875 12.1328125 C-11.80875 11.4728125 -11.14875 10.8128125 -10.46875 10.1328125 C-6.84375 10.0078125 -6.84375 10.0078125 -3.46875 10.1328125 C-3.48035156 9.49472656 -3.49195313 8.85664062 -3.50390625 8.19921875 C-3.51292969 7.37292969 -3.52195312 6.54664063 -3.53125 5.6953125 C-3.54285156 4.87160156 -3.55445313 4.04789063 -3.56640625 3.19921875 C-3.42238977 0.15183003 -3.05698031 0.1644578 0 0 Z " fill="#FEFEFE" transform="translate(518.46875,868.8671875)"/>
<path d="M0 0 C2.09375 -0.3984375 2.09375 -0.3984375 4.5 -0.375 C5.2940625 -0.38273438 6.088125 -0.39046875 6.90625 -0.3984375 C7.5971875 -0.26695312 8.288125 -0.13546875 9 0 C11.45286296 3.67929445 11.23228878 5.47377907 11.1953125 9.85546875 C11.1924826 10.51710526 11.18965271 11.17874176 11.18673706 11.86042786 C11.17555918 13.96963737 11.15045981 16.07841925 11.125 18.1875 C11.11496707 19.61913448 11.10584176 21.05077564 11.09765625 22.48242188 C11.07562795 25.98841977 11.04111485 29.49416813 11 33 C12.13131348 33.05752441 13.26262695 33.11504883 14.42822266 33.17431641 C16.38187744 33.27365479 16.38187744 33.27365479 18.375 33.375 C19.13989746 33.40899902 19.90479492 33.44299805 20.69287109 33.47802734 C25.77777778 33.77777778 25.77777778 33.77777778 28 36 C28.27674561 35.26475098 28.55349121 34.52950195 28.83862305 33.77197266 C30.1160909 30.38754689 31.40173716 27.0062827 32.6875 23.625 C33.12255859 22.46871094 33.55761719 21.31242188 34.00585938 20.12109375 C36.65003344 13.18748175 39.56258905 6.5775323 43 0 C46.63 0 50.26 0 54 0 C57.07612183 6.77587656 59.87202178 13.62533103 62.5625 20.5625 C63.14161133 22.0465332 63.14161133 22.0465332 63.73242188 23.56054688 C64.48283711 25.48708139 65.22987974 27.41493382 65.97314453 29.34423828 C66.62044588 31.01835718 67.27648775 32.6891475 67.94482422 34.35498047 C69.32011457 37.84039372 70 40.19484732 70 44 C66.04 44 62.08 44 58 44 C57.34 41.69 56.68 39.38 56 37 C51.05 37 46.1 37 41 37 C40.34 38.98 39.68 40.96 39 43 C35.13198238 45.57867841 32.07530474 45.15753069 27.61328125 44.9765625 C26.79627243 44.95153656 25.97926361 44.92651062 25.13749695 44.90072632 C22.52873963 44.81857276 19.92074468 44.72196612 17.3125 44.625 C15.54365091 44.56675563 13.77477055 44.50945245 12.00585938 44.453125 C7.67013466 44.31300101 3.33503812 44.15991319 -1 44 C-2.65249726 40.69500547 -2.16311705 37.01212857 -2.16796875 33.37890625 C-2.17129715 32.52320541 -2.17462555 31.66750458 -2.17805481 30.78587341 C-2.18312191 28.97436054 -2.1854632 27.16283831 -2.18530273 25.35131836 C-2.18748845 22.57715503 -2.20564417 19.80338976 -2.22460938 17.02929688 C-2.22754347 15.2708347 -2.22952816 13.51237062 -2.23046875 11.75390625 C-2.23765427 10.92258682 -2.24483978 10.0912674 -2.25224304 9.23475647 C-2.23663863 5.30844706 -2.22718913 3.34078369 0 0 Z M47 17 C46.34 19.97 45.68 22.94 45 26 C46.98 26 48.96 26 51 26 C50.50351065 21.53159589 50.31012244 20.31012244 47 17 Z " fill="#FEFEFE" transform="translate(473,941)"/>
<path d="M0 0 C4.52565352 -0.73499335 8.50802521 -1.03781915 13 0 C16.3477486 3.55663004 18.10095961 7.53996799 20 12 C20.55429687 13.08023438 21.10859375 14.16046875 21.6796875 15.2734375 C23 18 23 18 23 20 C23.66 20 24.32 20 25 20 C25.26167969 18.98808594 25.52335938 17.97617187 25.79296875 16.93359375 C27.63978953 10.542982 30.36272169 4.78527656 35 0 C39.52089846 -1.16415746 43.4481194 -0.94914397 48 0 C49 1 49 1 49.12025452 2.79066467 C49.11803391 3.57009933 49.11581329 4.349534 49.11352539 5.15258789 C49.11344986 6.03342545 49.11337433 6.914263 49.11329651 7.8217926 C49.10813522 8.77907761 49.10297394 9.73636261 49.09765625 10.72265625 C49.0962413 11.69786728 49.09482635 12.67307831 49.09336853 13.67784119 C49.08775133 16.80609143 49.07519593 19.93427123 49.0625 23.0625 C49.05748722 25.17773334 49.05292393 27.29296781 49.04882812 29.40820312 C49.03777631 34.60549296 49.02102146 39.80274145 49 45 C46.63386544 46.18306728 45.13219264 46.13354608 42.5 46.125 C41.7059375 46.12757813 40.911875 46.13015625 40.09375 46.1328125 C38 46 38 46 36 45 C35.505 34.605 35.505 34.605 35 24 C32.36 28.95 29.72 33.9 27 39 C21 39 21 39 18.875 37 C17.39085813 34.625373 16.11879759 32.3152416 14.8828125 29.8125 C14.52848145 29.09707031 14.17415039 28.38164063 13.80908203 27.64453125 C13.54208496 27.10183594 13.27508789 26.55914063 13 26 C12.93941406 27.28777344 12.87882813 28.57554687 12.81640625 29.90234375 C12.73201753 31.58074159 12.6473687 33.25912636 12.5625 34.9375 C12.52318359 35.78763672 12.48386719 36.63777344 12.44335938 37.51367188 C12.40146484 38.32255859 12.35957031 39.13144531 12.31640625 39.96484375 C12.26141968 41.08814087 12.26141968 41.08814087 12.20532227 42.23413086 C12 44 12 44 11 45 C9.16884117 45.09851171 7.33380067 45.12972629 5.5 45.125 C4.4996875 45.12757813 3.499375 45.13015625 2.46875 45.1328125 C0 45 0 45 -1 44 C-1.10119282 40.92087441 -1.13968327 37.86464501 -1.1328125 34.78515625 C-1.13376923 33.85908066 -1.13472595 32.93300507 -1.13571167 31.97886658 C-1.13639362 30.01593966 -1.13453832 28.0530105 -1.13037109 26.09008789 C-1.12502907 23.07888737 -1.13031247 20.06783643 -1.13671875 17.05664062 C-1.13605785 15.1536455 -1.13477645 13.25065047 -1.1328125 11.34765625 C-1.13483673 10.44241714 -1.13686096 9.53717804 -1.13894653 8.60450745 C-1.13579437 7.76701462 -1.13264221 6.92952179 -1.12939453 6.06665039 C-1.12859894 5.32798233 -1.12780334 4.58931427 -1.12698364 3.82826233 C-1 2 -1 2 0 0 Z " fill="#FEFEFE" transform="translate(605,875)"/>
<path d="M0 0 C0.89589844 -0.01417969 1.79179688 -0.02835938 2.71484375 -0.04296875 C5.0625 0.1875 5.0625 0.1875 7.0625 2.1875 C7.3688859 4.92184962 7.5738336 7.57029821 7.6875 10.3125 C7.72617187 11.06660156 7.76484375 11.82070313 7.8046875 12.59765625 C7.89901031 14.46053184 7.98184662 16.32398255 8.0625 18.1875 C9.13242187 17.6925 10.20234375 17.1975 11.3046875 16.6875 C15.53474051 14.88222323 18.67583038 14.67294459 23.0625 16.1875 C26.62802702 19.03992161 29.04630183 22.10700563 31.0625 26.1875 C31.40307617 29.69262695 31.40307617 29.69262695 31.35546875 33.67578125 C31.35122391 34.37897995 31.34697906 35.08217865 31.34260559 35.8066864 C31.3259006 38.03819131 31.28826614 40.26877113 31.25 42.5 C31.23494248 44.0188671 31.22125594 45.53774846 31.20898438 47.05664062 C31.17602473 50.76722434 31.12430016 54.47727178 31.0625 58.1875 C27.17085652 59.48471449 24.16820774 59.31783993 20.0625 59.1875 C19.4025 58.8575 18.7425 58.5275 18.0625 58.1875 C17.7325 48.6175 17.4025 39.0475 17.0625 29.1875 C10.42916667 29.42083333 10.42916667 29.42083333 8.0625 32.1875 C7.69076984 34.8057767 7.69076984 34.8057767 7.6484375 37.8515625 C7.59042969 39.53378906 7.59042969 39.53378906 7.53125 41.25 C7.48484375 43.0134375 7.48484375 43.0134375 7.4375 44.8125 C7.37949219 46.58753906 7.37949219 46.58753906 7.3203125 48.3984375 C7.22581155 51.32796691 7.14025442 54.25748597 7.0625 57.1875 C3.25405753 59.30982587 0.43045019 59.4301639 -3.9375 59.1875 C-4.5975 58.8575 -5.2575 58.5275 -5.9375 58.1875 C-5.96062883 50.77290058 -5.97841785 43.35830889 -5.98931217 35.94368076 C-5.99453982 32.50109652 -6.00163531 29.05853688 -6.01293945 25.6159668 C-6.02584235 21.66194957 -6.03072918 17.70794244 -6.03515625 13.75390625 C-6.04031754 12.51226212 -6.04547882 11.27061798 -6.05079651 9.99134827 C-6.05087204 8.85024094 -6.05094757 7.70913361 -6.05102539 6.53344727 C-6.053246 5.523069 -6.05546661 4.51269073 -6.05775452 3.47169495 C-5.8368434 -0.72443906 -3.6920067 0.02648498 0 0 Z " fill="#FEFEFE" transform="translate(547.9375,861.8125)"/>
<path d="M0 0 C3.92452309 -0.87294525 7.09579221 -1.04999528 11 0 C15.08845957 3.84154417 18.04132011 8.26019974 21 13 C21.69270996 14.10021484 21.69270996 14.10021484 22.39941406 15.22265625 C23.60546457 17.1448787 24.80542181 19.07063407 26 21 C26.02505615 20.39937744 26.0501123 19.79875488 26.07592773 19.17993164 C26.1915528 16.47388563 26.31442936 13.76821717 26.4375 11.0625 C26.47681641 10.11697266 26.51613281 9.17144531 26.55664062 8.19726562 C26.59853516 7.29814453 26.64042969 6.39902344 26.68359375 5.47265625 C26.72025146 4.64000244 26.75690918 3.80734863 26.79467773 2.94946289 C27 1 27 1 28 0 C29.66429051 -0.09823937 31.33281931 -0.12973631 33 -0.125 C34.36125 -0.12886719 34.36125 -0.12886719 35.75 -0.1328125 C38 0 38 0 39 1 C39.10301414 2.33993616 39.13848453 3.68517965 39.14526367 5.02905273 C39.15164352 5.88341415 39.15802338 6.73777557 39.16459656 7.61802673 C39.16570938 8.54716385 39.1668222 9.47630096 39.16796875 10.43359375 C39.17296135 11.85600121 39.17296135 11.85600121 39.17805481 13.30714417 C39.18312819 15.31714389 39.18546301 17.32715208 39.18530273 19.3371582 C39.18748822 22.42087619 39.20563683 25.50423606 39.22460938 28.58789062 C39.22754334 30.5364571 39.22952812 32.48502529 39.23046875 34.43359375 C39.23765427 35.36070663 39.24483978 36.28781952 39.25224304 37.24302673 C39.24916641 38.10054031 39.24608978 38.95805389 39.24291992 39.84155273 C39.24434494 40.59798569 39.24576996 41.35441864 39.24723816 42.1337738 C39 44 39 44 37 46 C33.66186744 46.79856188 31.12770953 46.3648187 28 45 C21.90282442 38.79459054 17.59709745 31.35535592 13 24 C12.67 30.93 12.34 37.86 12 45 C9.6203388 46.1898306 8.08514265 46.13349966 5.4375 46.125 C4.22900391 46.12886719 4.22900391 46.12886719 2.99609375 46.1328125 C1 46 1 46 0 45 C-0.15927006 42.93573876 -0.25150637 40.86625399 -0.31640625 38.796875 C-0.35830078 37.50523437 -0.40019531 36.21359375 -0.44335938 34.8828125 C-0.46293701 34.20250977 -0.48251465 33.52220703 -0.50268555 32.82128906 C-0.56105686 30.79997377 -0.62711091 28.77888495 -0.69335938 26.7578125 C-1.43541086 2.87082173 -1.43541086 2.87082173 0 0 Z " fill="#FEFEFE" transform="translate(322,875)"/>
<path d="M0 0 C2.5625 1.9375 2.5625 1.9375 4 4 C4.125 5.9375 4.125 5.9375 3 8 C1.09222993 9.83419216 -0.89109704 11.38467008 -3 13 C-7.75 11.125 -7.75 11.125 -10 10 C-14.99220285 9.62322997 -17.98020143 9.92603639 -22 13 C-23.97698481 16.95396963 -23.57069292 21.70119353 -23 26 C-20.7984026 28.89683868 -19.21405538 30.39297231 -16 32 C-11.85496339 32.24787017 -11.85496339 32.24787017 -8 31 C-8.33 30.01 -8.66 29.02 -9 28 C-10.134375 27.855625 -11.26875 27.71125 -12.4375 27.5625 C-16 27 -16 27 -17 26 C-17.27314815 20.26388889 -17.27314815 20.26388889 -17 18 C-15 16 -15 16 -13.04467773 15.75708008 C-12.26552002 15.76118896 -11.4863623 15.76529785 -10.68359375 15.76953125 C-9.83732422 15.77146484 -8.99105469 15.77339844 -8.11914062 15.77539062 C-6.79172852 15.79375977 -6.79172852 15.79375977 -5.4375 15.8125 C-4.54869141 15.81314453 -3.65988281 15.81378906 -2.74414062 15.81445312 C3.85978903 15.85978903 3.85978903 15.85978903 5 17 C5.33427964 20.42784729 5.32495034 23.87044808 5.375 27.3125 C5.43107422 28.75786133 5.43107422 28.75786133 5.48828125 30.23242188 C5.57719162 37.36007016 5.57719162 37.36007016 2.6640625 40.58984375 C-5.42994293 44.87420733 -15.47106728 45.6485317 -24.3125 43.0625 C-29.97517468 40.5016726 -34.50809423 35.40582473 -36.98046875 29.76171875 C-38.91504835 22.45186427 -38.29911327 15.01865374 -34.9375 8.25 C-31.93759992 3.33155918 -27.6491051 -0.76096639 -22.11328125 -2.640625 C-14.33825614 -3.96281042 -7.058594 -3.529297 0 0 Z " fill="#FEFEFE" transform="translate(403,877)"/>
<path d="M0 0 C4.65675467 4.19482458 6.47025924 9.91501417 7.16015625 16.0078125 C7.41072997 24.7016312 5.39861876 31.00407076 -0.546875 37.42578125 C-6.1870369 42.62278757 -12.44901268 42.46475341 -19.8046875 42.28515625 C-26.09153922 41.63904793 -29.58795213 39.53704787 -34 35.125 C-39.06296828 27.74753193 -40.21116224 21.85964701 -39.1875 12.9375 C-37.43600108 6.19214402 -33.65685696 1.18741976 -28.1875 -3.0625 C-18.89178681 -8.03462566 -8.28586025 -5.36143898 0 0 Z M-25.11328125 11.73828125 C-27.09006401 15.78529467 -27.16888147 19.58217203 -26.1875 23.9375 C-24.47510651 27.04866179 -22.41371364 29.32439318 -19.1875 30.9375 C-15.12915956 31.59816007 -12.63141142 30.9831365 -9.3125 28.6875 C-6.94307764 26.4861963 -6.24936413 25.24515988 -5.60546875 22.04296875 C-5.44495376 17.22157401 -5.59056753 13.9522852 -8.0625 9.75 C-11.28894573 6.99803158 -13.783508 6.39819358 -18.078125 6.4765625 C-21.4795729 7.21984186 -23.08308292 8.99612295 -25.11328125 11.73828125 Z " fill="#FEFEFE" transform="translate(291.1875,879.0625)"/>
<path d="M0 0 C3.68979242 0.0176264 4.75468068 0.56995042 7.421875 3.20703125 C9.76481251 6.33225829 11.91705848 9.50880166 14 12.8125 C14.55300781 13.66328125 15.10601563 14.5140625 15.67578125 15.390625 C16.81662489 17.17741109 17.91445593 18.99158736 19 20.8125 C19.04898438 19.62011719 19.09796875 18.42773438 19.1484375 17.19921875 C19.22347604 15.63278932 19.2990234 14.06638421 19.375 12.5 C19.42140625 11.32147461 19.42140625 11.32147461 19.46875 10.11914062 C19.50742187 9.36181641 19.54609375 8.60449219 19.5859375 7.82421875 C19.6173584 7.12772217 19.6487793 6.43122559 19.68115234 5.71362305 C20 3.8125 20 3.8125 22 0.8125 C24.12890625 0.484375 24.12890625 0.484375 26.5625 0.5625 C27.36816406 0.57796875 28.17382812 0.5934375 29.00390625 0.609375 C31 0.8125 31 0.8125 32 1.8125 C32.1011692 4.90331465 32.13968558 7.97132555 32.1328125 11.0625 C32.13376923 11.99094727 32.13472595 12.91939453 32.13571167 13.87597656 C32.13639355 15.84309965 32.13453872 17.81022496 32.13037109 19.77734375 C32.12502295 22.79953026 32.13031582 25.82156815 32.13671875 28.84375 C32.13605797 30.75000033 32.13477681 32.65625057 32.1328125 34.5625 C32.13483673 35.47290039 32.13686096 36.38330078 32.13894653 37.32128906 C32.11494969 43.69755031 32.11494969 43.69755031 31 44.8125 C27.3800041 45.91678158 24.60421857 46.00729598 21 44.8125 C17.29436843 41.38619395 14.71156905 36.90142342 12.10644531 32.62011719 C10.4810746 29.96472338 8.73962117 27.39412959 7 24.8125 C6.97494385 25.38282959 6.9498877 25.95315918 6.92407227 26.54077148 C6.80843451 29.11076157 6.68556376 31.68035527 6.5625 34.25 C6.50352539 35.59674805 6.50352539 35.59674805 6.44335938 36.97070312 C6.40146484 37.82470703 6.35957031 38.67871094 6.31640625 39.55859375 C6.27974854 40.34935303 6.24309082 41.1401123 6.20532227 41.95483398 C6 43.8125 6 43.8125 5 44.8125 C3.31391034 44.88455511 1.62499341 44.89636068 -0.0625 44.875 C-0.98160156 44.86597656 -1.90070312 44.85695313 -2.84765625 44.84765625 C-3.55792969 44.83605469 -4.26820313 44.82445312 -5 44.8125 C-5.02464513 38.7069529 -5.04283371 32.60143449 -5.05493164 26.49584961 C-5.05997288 24.41706844 -5.06680574 22.33829084 -5.07543945 20.25952148 C-5.08751422 17.27847414 -5.09323024 14.29747351 -5.09765625 11.31640625 C-5.10539818 9.91328941 -5.10539818 9.91328941 -5.11329651 8.48182678 C-5.11337204 7.62100998 -5.11344757 6.76019318 -5.11352539 5.87329102 C-5.115746 5.11162125 -5.11796661 4.34995148 -5.12025452 3.56520081 C-4.89743309 0.31759479 -2.89643759 0.37714031 0 0 Z " fill="#FEFEFE" transform="translate(645,940.1875)"/>
<path d="M0 0 C4.21917407 3.25228001 6.97311362 6.037052 8 11.3125 C8.13107446 12.87492107 8.22223215 14.44101417 8.28125 16.0078125 C8.33732422 17.32845703 8.33732422 17.32845703 8.39453125 18.67578125 C8.46514167 20.52472823 8.53545167 22.37368671 8.60546875 24.22265625 C8.66154297 25.53943359 8.66154297 25.53943359 8.71875 26.8828125 C8.74904297 27.68477051 8.77933594 28.48672852 8.81054688 29.31298828 C8.88545139 31.38411174 8.88545139 31.38411174 10 33.3125 C10.1875 36.3125 10.1875 36.3125 10 39.3125 C8 41.3125 8 41.3125 5.72265625 41.54296875 C4.84480469 41.52878906 3.96695313 41.51460937 3.0625 41.5 C2.18722656 41.49355469 1.31195312 41.48710938 0.41015625 41.48046875 C-2 41.3125 -2 41.3125 -5 40.3125 C-5.680625 40.621875 -6.36125 40.93125 -7.0625 41.25 C-12.52907837 43.22727303 -17.97660503 43.01149099 -23.4375 41.125 C-26.4487336 38.99510306 -27.65193976 37.75754283 -29 34.3125 C-29.55987602 30.03566931 -29.5000389 26.49680267 -27.8125 22.5 C-24.11963067 18.04308874 -21.08590948 15.93574367 -15.22851562 15.25 C-14.55498047 15.188125 -13.88144531 15.12625 -13.1875 15.0625 C-12.49462891 14.98515625 -11.80175781 14.9078125 -11.08789062 14.828125 C-9.39352419 14.64116043 -7.6969142 14.47472073 -6 14.3125 C-6.33 13.3225 -6.66 12.3325 -7 11.3125 C-13.28202587 11.06923375 -13.28202587 11.06923375 -19 13.3125 C-21.75 13.4375 -21.75 13.4375 -24 13.3125 C-27.04212168 8.0800507 -27.04212168 8.0800507 -26.859375 4.75 C-26 2.3125 -26 2.3125 -24.13671875 0.94921875 C-16.48158813 -2.01760221 -7.65932795 -4.01827697 0 0 Z M-16 26.3125 C-15.67 27.9625 -15.34 29.6125 -15 31.3125 C-11.71303767 32.11203138 -10.28976808 32.40908936 -7 31.3125 C-5.35179805 28.71007586 -5 27.45001221 -5 24.3125 C-10.7974423 24.06821657 -10.7974423 24.06821657 -16 26.3125 Z " fill="#FEFEFE" transform="translate(687,878.6875)"/>
<path d="M0 0 C5.22827653 5.24007851 6.14318152 10.42910977 6.29296875 17.734375 C6.24172559 24.20586603 5.3097332 28.99201346 0.73046875 33.734375 C-5.11852602 39.29092003 -10.49071488 40.13252806 -18.328125 39.98828125 C-24.27645076 39.47481355 -29.08517001 37.03182708 -33.26953125 32.734375 C-37.52404679 26.19966159 -38.40560648 19.37796889 -37.26953125 11.734375 C-35.14009846 5.03514177 -31.50372837 -0.77931671 -25.26953125 -4.265625 C-16.01693832 -7.70274078 -7.55353458 -6.33230444 0 0 Z M-22.26953125 8.734375 C-25.16329568 11.62813943 -25.20575833 14.80879772 -25.26953125 18.734375 C-24.59656584 22.46627406 -24.07082973 24.84722311 -21.51953125 27.671875 C-18.51933055 29.08863644 -16.55822835 29.1370726 -13.26953125 28.734375 C-9.81679452 27.28904334 -8.49324783 26.08152141 -6.45703125 22.921875 C-5.16325167 19.44909823 -4.7351122 17.39896279 -5.26953125 13.734375 C-7.32446633 9.918067 -9.01926478 7.06258327 -13.26953125 5.734375 C-17.59041011 5.734375 -18.81436034 6.37031069 -22.26953125 8.734375 Z " fill="#FEFEFE" transform="translate(629.26953125,946.265625)"/>
<path d="M0 0 C1.06089844 0.03222656 2.12179687 0.06445312 3.21484375 0.09765625 C6.0625 0.9375 6.0625 0.9375 7.7734375 3.55078125 C8.41152344 5.22720703 8.41152344 5.22720703 9.0625 6.9375 C9.49949219 8.05382812 9.93648438 9.17015625 10.38671875 10.3203125 C10.83660156 11.55523438 11.28648437 12.79015625 11.75 14.0625 C13.50279812 18.85424403 15.31933626 23.60724177 17.265625 28.32421875 C17.63598877 29.22575684 18.00635254 30.12729492 18.38793945 31.05615234 C19.12095868 32.83181297 19.86151832 34.6043822 20.61010742 36.37353516 C21.11054565 37.59049072 21.11054565 37.59049072 21.62109375 38.83203125 C21.92329834 39.55237549 22.22550293 40.27271973 22.53686523 41.01489258 C23.0625 42.9375 23.0625 42.9375 22.0625 45.9375 C18.56200694 47.41847783 14.78619557 47.34372133 11.0625 46.9375 C8.9490542 44.33091685 8.1206347 42.1119041 7.0625 38.9375 C1.7825 38.6075 -3.4975 38.2775 -8.9375 37.9375 C-9.22625 39.236875 -9.515 40.53625 -9.8125 41.875 C-10.3046875 44.08984375 -10.3046875 44.08984375 -10.9375 45.9375 C-13.40566414 47.17158207 -15.18411201 47.13947579 -17.9375 47.1875 C-18.824375 47.21328125 -19.71125 47.2390625 -20.625 47.265625 C-21.388125 47.15734375 -22.15125 47.0490625 -22.9375 46.9375 C-23.5975 45.9475 -24.2575 44.9575 -24.9375 43.9375 C-24.46875 41.984375 -24.46875 41.984375 -23.4375 39.6875 C-23.05207031 38.79546875 -22.66664063 37.9034375 -22.26953125 36.984375 C-21.61017578 35.47617187 -21.61017578 35.47617187 -20.9375 33.9375 C-19.99192414 31.60742769 -19.05501801 29.27382557 -18.125 26.9375 C-17.87588867 26.3182666 -17.62677734 25.6990332 -17.37011719 25.06103516 C-15.89680633 21.39066561 -14.4647303 17.70744003 -13.06640625 14.0078125 C-12.75356689 13.18539062 -12.44072754 12.36296875 -12.1184082 11.515625 C-11.50556643 9.90066718 -10.89847288 8.28351441 -10.29760742 6.6640625 C-7.85874525 0.25632054 -6.73018191 -0.31815405 0 0 Z M-0.9375 17.9375 C-3.29660353 22.2012281 -3.29660353 22.2012281 -3.9375 26.9375 C-1.6275 26.9375 0.6825 26.9375 3.0625 26.9375 C2.0725 23.9675 1.0825 20.9975 0.0625 17.9375 C-0.2675 17.9375 -0.5975 17.9375 -0.9375 17.9375 Z " fill="#FEFEFE" transform="translate(450.9375,874.0625)"/>
<path d="M0 0 C3.89100007 2.41242005 6.40314599 5.29839116 9.125 8.9375 C7.5742297 12.23715664 6.40478992 14.15704261 3.125 15.9375 C0.09985609 15.7862428 -1.41646971 15.31960857 -3.75 13.375 C-6.94026868 11.21687707 -9.11446401 11.40970547 -12.875 11.9375 C-16.72217506 15.11560114 -18.70823249 17.20311786 -19.1875 22.1875 C-18.81828153 26.61812166 -17.70661153 28.55529734 -14.875 31.9375 C-12.32738259 33.89067335 -11.16852945 33.94999061 -7.9375 33.8125 C-4.4665759 32.8208074 -2.52225798 31.35117639 0.125 28.9375 C4.06173644 30.24974548 6.35219294 31.85660327 9.125 34.9375 C7.76852598 39.37686951 5.95691061 41.3531882 2.125 43.9375 C-4.3201377 47.02187979 -11.6202668 46.93342273 -18.51171875 45.3203125 C-24.39937315 43.06121251 -27.83949966 39.40140061 -30.875 33.9375 C-34.12130867 25.67416885 -33.43837114 18.6619296 -30.27734375 10.5625 C-24.43605702 -0.37160776 -11.4596137 -4.14387817 0 0 Z " fill="#FEFEFE" transform="translate(240.875,875.0625)"/>
<path d="M0 0 C0.825 0.5775 1.65 1.155 2.5 1.75 C3.428125 2.389375 4.35625 3.02875 5.3125 3.6875 C7.5 5.75 7.5 5.75 8.5 9.75 C5.86 11.73 3.22 13.71 0.5 15.75 C-1.625 14.6875 -3.75 13.625 -5.875 12.5625 C-9.17666926 11.54055475 -11.19105606 11.81486367 -14.5 12.75 C-16.50352709 14.32970405 -17.3775142 15.34300606 -18.1171875 17.80078125 C-18.71007732 23.00204192 -18.54860543 26.23354751 -15.5 30.75 C-12.33568079 32.3321596 -8.94846872 32.18642446 -5.5 31.75 C-4.984375 31.234375 -4.46875 30.71875 -3.9375 30.1875 C-3.463125 29.713125 -2.98875 29.23875 -2.5 28.75 C1.46477448 28.82208681 3.77080288 29.22133209 7 31.5625 C8.5 33.75 8.5 33.75 8.625 35.6875 C6.29811636 39.95345335 1.97420574 42.98862551 -2.5 44.75 C-10.34998586 45.58140244 -18.08306845 45.82385285 -24.5 40.75 C-29.62033637 36.11184777 -32.00953487 31.60114603 -32.71484375 24.625 C-33.0142165 17.72745189 -31.42939146 11.7438833 -27.6875 5.9375 C-20.10909 -1.64091 -10.13451011 -3.61946789 0 0 Z " fill="#FEFEFE" transform="translate(780.5,876.25)"/>
<path d="M0 0 C1.51400391 0.01740234 1.51400391 0.01740234 3.05859375 0.03515625 C4.07050781 0.04417969 5.08242188 0.05320312 6.125 0.0625 C7.29869141 0.07990234 7.29869141 0.07990234 8.49609375 0.09765625 C16.01916379 13.60498656 20.68423073 28.45960452 25.49609375 43.09765625 C24.49609375 44.09765625 24.49609375 44.09765625 21.9921875 44.1953125 C20.98285156 44.18371094 19.97351563 44.17210937 18.93359375 44.16015625 C17.92167969 44.15113281 16.90976562 44.14210938 15.8671875 44.1328125 C14.69349609 44.11541016 14.69349609 44.11541016 13.49609375 44.09765625 C13.15964844 43.12570312 12.82320313 42.15375 12.4765625 41.15234375 C10.7558523 37.71856901 10.7558523 37.71856901 6.921875 37.29296875 C5.55160389 37.24001141 4.17987824 37.21753474 2.80859375 37.22265625 C2.10669922 37.20203125 1.40480469 37.18140625 0.68164062 37.16015625 C-1.04636093 37.1131358 -2.77527031 37.10190874 -4.50390625 37.09765625 C-4.58640625 38.04640625 -4.66890625 38.99515625 -4.75390625 39.97265625 C-5.50390625 43.09765625 -5.50390625 43.09765625 -7.26953125 44.49609375 C-9.83385207 45.18648782 -11.63334056 45.10803356 -14.25390625 44.72265625 C-15.053125 44.61179687 -15.85234375 44.5009375 -16.67578125 44.38671875 C-17.58070313 44.24363281 -17.58070313 44.24363281 -18.50390625 44.09765625 C-17.92839532 40.08269477 -17.05790304 36.50591845 -15.61328125 32.71875 C-15.23558594 31.72045166 -14.85789062 30.72215332 -14.46875 29.69360352 C-14.06785156 28.65131592 -13.66695313 27.60902832 -13.25390625 26.53515625 C-12.64482422 24.93401978 -12.64482422 24.93401978 -12.0234375 23.30053711 C-11.21922941 21.18868795 -10.41265449 19.07773832 -9.60351562 16.96777344 C-8.67230189 14.5371898 -7.74911711 12.10390587 -6.83203125 9.66796875 C-3.21908854 0.12554948 -3.21908854 0.12554948 0 0 Z M2.49609375 17.09765625 C0.99788316 20.46863008 0.49609375 22.30207744 0.49609375 26.09765625 C2.47609375 26.09765625 4.45609375 26.09765625 6.49609375 26.09765625 C6.21458288 24.78294057 5.92056036 23.47089858 5.62109375 22.16015625 C5.37746094 21.06380859 5.37746094 21.06380859 5.12890625 19.9453125 C4.66647852 17.89065331 4.66647852 17.89065331 2.49609375 17.09765625 Z " fill="#FEFEFE" transform="translate(344.50390625,940.90234375)"/>
<path d="M0 0 C0.8146875 0.00257813 1.629375 0.00515625 2.46875 0.0078125 C3.2834375 0.00523437 4.098125 0.00265625 4.9375 0 C6.96875 0.1328125 6.96875 0.1328125 7.96875 1.1328125 C8.17393633 3.32530493 8.31675955 5.52368507 8.43359375 7.72265625 C8.51211214 9.07748891 8.59089644 10.43230619 8.66992188 11.78710938 C8.78967261 13.93106559 8.90649947 16.0750969 9.01831055 18.21948242 C9.12777262 20.28359046 9.24869744 22.34678057 9.37109375 24.41015625 C9.43804443 25.65015381 9.50499512 26.89015137 9.57397461 28.16772461 C9.67844183 31.24757103 9.67844183 31.24757103 11.96875 33.1328125 C14.96875 33.46614583 14.96875 33.46614583 17.96875 33.1328125 C21.96537405 29.13618845 20.94974923 21.55857707 20.9921875 16.140625 C20.97689782 14.30076691 20.96004415 12.46092096 20.94140625 10.62109375 C21.03541667 2.06614583 21.03541667 2.06614583 22.96875 0.1328125 C24.48803038 0.06101286 26.01042482 0.04889243 27.53125 0.0703125 C28.35753906 0.07933594 29.18382812 0.08835937 30.03515625 0.09765625 C30.67324219 0.10925781 31.31132812 0.12085938 31.96875 0.1328125 C34.10439564 4.40410378 33.19578678 10.01875832 33.20898438 14.71655273 C33.21863331 16.79517507 33.24962827 18.87278408 33.28125 20.95117188 C33.28778621 22.28645249 33.29303425 23.62174016 33.296875 24.95703125 C33.31089355 26.76820435 33.31089355 26.76820435 33.32519531 28.6159668 C32.77754521 34.01932277 31.12629838 37.83057058 27.46875 41.9453125 C23.18991102 45.1411699 18.21524454 45.9654486 12.96875 46.1328125 C6.92162351 45.22900469 2.8419639 42.94498734 -1.03125 38.1328125 C-3.45675399 34.46187995 -3.30549876 30.81169764 -3.26171875 26.55859375 C-3.26126053 25.83415573 -3.26080231 25.10971771 -3.2603302 24.36332703 C-3.25731734 22.83782302 -3.24946001 21.31232183 -3.23706055 19.78686523 C-3.2187326 17.44308684 -3.21655147 15.09970216 -3.21679688 12.75585938 C-3.21188404 11.27343406 -3.20605675 9.79101143 -3.19921875 8.30859375 C-3.19810593 7.60446854 -3.1969931 6.90034332 -3.19584656 6.17488098 C-3.13704416 0.20511443 -3.13704416 0.20511443 0 0 Z " fill="#FEFEFE" transform="translate(433.03125,940.8671875)"/>
<path d="M0 0 C3.05642909 1.27757849 5.50481364 2.83027273 8 5 C7.654156 8.11259604 7.12620033 9.82872813 5.25 12.375 C3 14 3 14 0.375 13.8125 C-2 13 -2 13 -4 12 C-5.99960012 11.960008 -8.00047242 11.95653201 -10 12 C-10 12.66 -10 13.32 -10 14 C-8.57107422 14.54527344 -8.57107422 14.54527344 -7.11328125 15.1015625 C5.88620342 20.23371004 5.88620342 20.23371004 9 26 C10.25618726 30.0360081 10.27709634 33.19949947 8.875 37.25 C6.18309922 41.19812114 3.54123411 43.4862553 -1 45 C-8.6612089 45.59019683 -16.53376732 45.77599672 -22.71875 40.546875 C-24 39 -24 39 -23.9375 36.5625 C-22.8388558 33.55953918 -21.39003469 32.08164312 -19 30 C-14.25 31.875 -14.25 31.875 -12 33 C-10.62657169 33.0689472 -9.24997898 33.08467708 -7.875 33.0625 C-5.956875 33.0315625 -5.956875 33.0315625 -4 33 C-4 32.01 -4 31.02 -4 30 C-5.10408203 29.61908203 -5.10408203 29.61908203 -6.23046875 29.23046875 C-7.20628906 28.88628906 -8.18210937 28.54210937 -9.1875 28.1875 C-10.15042969 27.85105469 -11.11335937 27.51460937 -12.10546875 27.16796875 C-15.98975387 25.60062563 -19.1213507 24.06043881 -21.8125 20.8125 C-23.65574943 16.44690925 -23.90821095 12.45607584 -22.2734375 8.03515625 C-17.46502434 -1.21028857 -9.40941306 -1.18543787 0 0 Z " fill="#FEFEFE" transform="translate(705,941)"/>
<path d="M0 0 C2.41834665 1.79425719 2.8830136 2.49305895 3.5625 5.4375 C3 8 3 8 0.25 10.375 C-3 12 -3 12 -5 11.9375 C-6.67897775 11.15047918 -8.31493863 10.27258714 -9.9375 9.375 C-12.83988751 7.80743571 -12.83988751 7.80743571 -15.625 8.0625 C-18.84934872 9.33526923 -20.09257733 10.03289806 -22 13 C-22.89983218 18.40732485 -22.95796396 22.56305406 -19.875 27.1875 C-16.46389624 29.33797846 -14.95509517 29.74158034 -11 29 C-10.175 28.319375 -9.35 27.63875 -8.5 26.9375 C-6 25 -6 25 -2.9375 25 C0.32216368 26.10967274 1.80824447 27.38675303 4 30 C2.63410617 34.470198 0.93677047 36.48716779 -3 39 C-10.50786103 42.48169891 -15.73343463 42.32410649 -23.625 39.875 C-29.81567422 36.43573654 -32.8632212 32.32971725 -34.9375 25.5625 C-36.8232821 17.33465309 -35.42017003 10.22450752 -31 3 C-22.5681949 -6.81269626 -10.2490117 -7.11155914 0 0 Z " fill="#FEFEFE" transform="translate(423,945)"/>
<path d="M0 0 C2.60530687 2.28758652 4.72144199 4.30430719 6.5625 7.25 C6.625 9.375 6.625 9.375 5.5625 11.25 C2.21438866 13.78370588 0.86125783 14.25 -3.4375 14.25 C-3.4375 13.59 -3.4375 12.93 -3.4375 12.25 C-7.86769517 10.45682577 -10.8038152 9.91137995 -15.4375 11.25 C-17.96487004 13.16731521 -18.4091847 14.16505409 -19.4375 17.25 C-19.88871326 21.83733486 -20.13794917 24.93622426 -17.375 28.75 C-14.61231934 31.56738242 -14.61231934 31.56738242 -10.8125 31.6875 C-7.45292612 31.36161249 -7.45292612 31.36161249 -4.4375 30.25 C-4.1075 29.26 -3.7775 28.27 -3.4375 27.25 C0.06661265 27.5685557 2.1465105 27.94067447 5 30.0625 C6.5625 32.25 6.5625 32.25 6.3671875 34.1875 C5.3989544 36.66918484 4.28799532 37.7398979 2.25 39.4375 C1.65574219 39.94667969 1.06148438 40.45585938 0.44921875 40.98046875 C-4.45274281 44.27889009 -10.76670936 43.70044578 -16.4375 43.25 C-21.7657119 41.90058321 -26.56672925 39.06838339 -29.6328125 34.44921875 C-33.42236163 27.20137478 -33.86372154 19.24177539 -31.625 11.40625 C-28.83571848 4.9754065 -24.70821185 1.29000521 -18.4375 -1.75 C-12.43081998 -3.8045988 -5.54436775 -2.82258722 0 0 Z " fill="#FEFEFE" transform="translate(319.4375,942.75)"/>
<path d="M0 0 C1 1 1 1 1.09765625 3.06640625 C1.08605469 3.89011719 1.07445312 4.71382812 1.0625 5.5625 C1.05347656 6.38878906 1.04445313 7.21507812 1.03515625 8.06640625 C1.02355469 8.70449219 1.01195312 9.34257813 1 10 C3.01822917 9.90234375 5.03645833 9.8046875 7.0546875 9.70703125 C7.69664062 9.80371094 8.33859375 9.90039062 9 10 C11.78637633 14.1795645 10.79562512 16.14668677 10 21 C7.03 21 4.06 21 1 21 C1.33 27.27 1.66 33.54 2 40 C4.64 40 7.28 40 10 40 C11.60355101 43.50776784 12.22036864 46.14354879 12 50 C7.17669693 52.5724283 2.32087013 52.5286762 -3 52 C-7.17499095 50.70954825 -8.52314618 49.87538382 -10.6171875 46.03125 C-12.51707972 41.32207895 -12.56096951 36.5839529 -12.6875 31.5625 C-12.72166016 30.64017578 -12.75582031 29.71785156 -12.79101562 28.76757812 C-12.87282994 26.51184049 -12.94219122 24.25645881 -13 22 C-14.98 21.34 -16.96 20.68 -19 20 C-19 17.03 -19 14.06 -19 11 C-17.02 10.34 -15.04 9.68 -13 9 C-12.67 6.03 -12.34 3.06 -12 0 C-7.70513628 -0.75791713 -4.22307326 -1.24208037 0 0 Z " fill="#FEFEFE" transform="translate(716,869)"/>
<path d="M0 0 C4.50009665 3.03067734 6.38111812 6.8735407 8 12 C8.25 14.9375 8.25 14.9375 7 18 C0.99092804 24.75674451 -8.25732508 32.52811908 -17.375 34.125 C-21.38001122 33.98689616 -22.94671935 33.54440054 -26 31 C-29.27814902 27.35761221 -30.75351836 24.76058314 -31.4375 19.875 C-30.71669152 13.49069632 -27.08787181 9.08787181 -22.625 4.625 C-15.42278051 0.16648317 -8.41943316 -1.27383355 0 0 Z " fill="#1C96DC" transform="translate(597,816)"/>
<path d="M0 0 C-1.47574656 4.34043106 -4.60853599 5.82943771 -8.4375 7.875 C-9.3819397 8.39924561 -9.3819397 8.39924561 -10.34545898 8.93408203 C-13.17992342 10.50116722 -16.03426313 12.01763679 -18.9140625 13.5 C-30.00435849 19.25779379 -39.44382912 26.91035084 -48 36 C-48.845625 36.825 -49.69125 37.65 -50.5625 38.5 C-54.69526224 42.7387305 -58.7124448 47.0686672 -62 52 C-62.66 52 -63.32 52 -64 52 C-64.2475 52.680625 -64.495 53.36125 -64.75 54.0625 C-66.24107978 57.56653748 -68.09056284 60.70505661 -70 64 C-64.32450682 64.10485369 -58.6537201 64.14318475 -52.97729492 64.12207031 C-51.05011026 64.12400734 -49.12285443 64.14356722 -47.19604492 64.18164062 C-35.92942538 64.71998774 -35.92942538 64.71998774 -25.76318359 60.79052734 C-23.5238771 58.29854875 -21.74577207 55.85066545 -20 53 C-18.37446717 51.29319053 -16.70884005 49.62339805 -15 48 C-14.41476562 47.43152344 -13.82953125 46.86304688 -13.2265625 46.27734375 C2.70123817 31.38573829 20.86379622 23.47017536 42 19 C43.17175781 18.75121094 44.34351563 18.50242187 45.55078125 18.24609375 C60.51373777 15.63351404 85.65973438 13.10648959 99 22 C98.34 22 97.68 22 97 22 C97 22.66 97 23.32 97 24 C96.41734375 23.90912109 95.8346875 23.81824219 95.234375 23.72460938 C60.95765262 18.46992316 27.2332448 21.40251103 -1.875 41.9375 C-15.67858784 51.97627742 -15.67858784 51.97627742 -25.99023438 65.08300781 C-29.35486289 68.29232063 -33.38047215 67.54944218 -37.84765625 67.49609375 C-38.81529404 67.49754898 -39.78293182 67.49900421 -40.77989197 67.50050354 C-42.82505302 67.49884358 -44.87022643 67.48727152 -46.9152832 67.46655273 C-50.05408469 67.43757768 -53.19120028 67.44594569 -56.33007812 67.45898438 C-58.31511241 67.45274783 -60.30014135 67.44435754 -62.28515625 67.43359375 C-63.2278688 67.43652939 -64.17058136 67.43946503 -65.14186096 67.44248962 C-66.01293991 67.42980545 -66.88401886 67.41712128 -67.78149414 67.40405273 C-68.54965958 67.39864975 -69.31782501 67.39324677 -70.10926819 67.38768005 C-72 67 -72 67 -74 64 C-64.23348165 43.80762029 -47.92557859 27.67184848 -29.60253906 15.10302734 C-28.25986274 14.17886347 -26.93607121 13.22734352 -25.6171875 12.26953125 C-20.87123151 8.90405295 -15.80346051 6.25303852 -10.625 3.625 C-9.92189697 3.26639893 -9.21879395 2.90779785 -8.49438477 2.53833008 C-3.36873168 0 -3.36873168 0 0 0 Z " fill="#279FE3" transform="translate(541,592)"/>
<path d="M0 0 C0.71353638 0.00202423 1.42707275 0.00404846 2.16223145 0.00613403 C2.89091431 0.00517731 3.61959717 0.00422058 4.37036133 0.00323486 C5.91377855 0.00255318 7.45719861 0.00440666 9.00061035 0.00857544 C11.37095544 0.01392391 13.74111104 0.00863011 16.1114502 0.00222778 C17.60754437 0.00288857 19.10363842 0.00416973 20.59973145 0.00613403 C21.31326782 0.0041098 22.0268042 0.00208557 22.76196289 0 C27.76602953 0.02399462 27.76602953 0.02399462 28.88098145 1.13894653 C28.95278109 2.65822691 28.96490152 4.18062135 28.94348145 5.70144653 C28.93445801 6.5277356 28.92543457 7.35402466 28.9161377 8.20535278 C28.90453613 8.84343872 28.89293457 9.48152466 28.88098145 10.13894653 C24.88537537 12.9691675 21.45360821 11.90105099 16.88098145 11.13894653 C16.88883667 12.58515381 16.88883667 12.58515381 16.89685059 14.06057739 C16.91490263 17.62567218 16.92641419 21.19076289 16.93591309 24.75588989 C16.94095284 26.30114419 16.94778464 27.8463937 16.9564209 29.39163208 C16.96850221 31.60819682 16.97421317 33.82469872 16.9786377 36.04129028 C16.98379898 36.73608994 16.98896027 37.43088959 16.99427795 38.14674377 C16.99447421 39.81123983 16.94287273 41.47560152 16.88098145 43.13894653 C15.88098145 44.13894653 15.88098145 44.13894653 13.63098145 44.27175903 C12.72348145 44.26918091 11.81598145 44.26660278 10.88098145 44.26394653 C9.51973145 44.26781372 9.51973145 44.26781372 8.13098145 44.27175903 C5.88098145 44.13894653 5.88098145 44.13894653 4.88098145 43.13894653 C4.79258474 40.76326134 4.76567839 38.41685979 4.7833252 36.04129028 C4.78474014 35.33243179 4.78615509 34.6235733 4.78761292 33.89323425 C4.79322702 31.62092941 4.80578182 29.34872178 4.81848145 27.07644653 C4.82349463 25.53933858 4.82805785 24.00222908 4.83215332 22.46511841 C4.84320102 18.68969011 4.86047503 14.91433483 4.88098145 11.13894653 C4.26609863 11.24593872 3.65121582 11.35293091 3.0177002 11.46316528 C2.20945801 11.5830481 1.40121582 11.70293091 0.56848145 11.82644653 C-0.23202637 11.95406372 -1.03253418 12.08168091 -1.8572998 12.21316528 C-4.11901855 12.13894653 -4.11901855 12.13894653 -5.90515137 10.78396606 C-7.11901855 9.13894653 -7.11901855 9.13894653 -7.22839355 7.13113403 C-6.02284485 0.02887969 -6.02284485 0.02887969 0 0 Z " fill="#FEFEFE" transform="translate(545.1190185546875,940.8610534667969)"/>
<path d="M0 0 C0.9075 0.00257813 1.815 0.00515625 2.75 0.0078125 C4.11125 0.00394531 4.11125 0.00394531 5.5 0 C7.75 0.1328125 7.75 0.1328125 8.75 1.1328125 C8.84326716 2.69828298 8.86745582 4.26794022 8.86352539 5.83618164 C8.86344986 6.83714371 8.86337433 7.83810577 8.86329651 8.86940002 C8.85813522 9.9579277 8.85297394 11.04645538 8.84765625 12.16796875 C8.8462413 13.27635605 8.84482635 14.38474335 8.84336853 15.52671814 C8.83775033 19.08294319 8.82519475 22.63910633 8.8125 26.1953125 C8.80748734 28.59960847 8.80292403 31.00390542 8.79882812 33.40820312 C8.78777499 39.31642754 8.77101917 45.2246156 8.75 51.1328125 C6.93757948 51.15968529 5.12504767 51.17914965 3.3125 51.1953125 C2.30316406 51.20691406 1.29382813 51.21851563 0.25390625 51.23046875 C-2.25 51.1328125 -2.25 51.1328125 -3.25 50.1328125 C-3.34839214 48.6034662 -3.37798539 47.06961684 -3.37939453 45.53710938 C-3.38254669 44.55939575 -3.38569885 43.58168213 -3.38894653 42.57434082 C-3.3869223 41.51082397 -3.38489807 40.44730713 -3.3828125 39.3515625 C-3.38376923 38.26774292 -3.38472595 37.18392334 -3.38571167 36.06726074 C-3.38639365 33.7705886 -3.38453811 31.47391455 -3.38037109 29.17724609 C-3.37502312 25.64806822 -3.3803155 22.11901763 -3.38671875 18.58984375 C-3.38605797 16.36458305 -3.38477682 14.13932243 -3.3828125 11.9140625 C-3.38483673 10.85054565 -3.38686096 9.78702881 -3.38894653 8.69128418 C-3.38579437 7.71357056 -3.38264221 6.73585693 -3.37939453 5.72851562 C-3.37859894 4.86327271 -3.37780334 3.99802979 -3.37698364 3.10656738 C-3.19357918 0.25584228 -2.85413002 0.16847295 0 0 Z " fill="#FEFFFF" transform="translate(375.25,933.8671875)"/>
<path d="M0 0 C1.81242052 -0.02687279 3.62495233 -0.04633715 5.4375 -0.0625 C6.44683594 -0.07410156 7.45617187 -0.08570313 8.49609375 -0.09765625 C11 0 11 0 12 1 C12.09268999 2.35094982 12.11747326 3.70667091 12.11352539 5.06079102 C12.11344986 5.92160782 12.11337433 6.78242462 12.11329651 7.66932678 C12.10813522 8.60473801 12.10297394 9.54014923 12.09765625 10.50390625 C12.0962413 11.45692123 12.09482635 12.40993622 12.09336853 13.39183044 C12.08775152 16.44875165 12.07519616 19.50560077 12.0625 22.5625 C12.05748719 24.62955624 12.05292391 26.69661362 12.04882812 28.76367188 C12.03777656 33.84247588 12.02050055 38.9212257 12 44 C4.73482933 46.5187263 4.73482933 46.5187263 1 46 C-1.63582535 42.04626198 -1.26922915 38.64790752 -1.23046875 34.0625 C-1.23001053 33.18601807 -1.22955231 32.30953613 -1.2290802 31.40649414 C-1.22605996 29.55385992 -1.21818046 27.7012282 -1.20581055 25.84863281 C-1.18757055 23.0109763 -1.1853008 20.17364649 -1.18554688 17.3359375 C-1.18063086 15.53645551 -1.17480218 13.73697573 -1.16796875 11.9375 C-1.16685593 11.08744385 -1.1657431 10.2373877 -1.16459656 9.36157227 C-1.13746211 5.99767165 -1.07093209 3.21279627 0 0 Z " fill="#FEFEFE" transform="translate(303,875)"/>
<path d="M0 0 C1.01422531 -0.00630432 2.02845062 -0.01260864 3.07341003 -0.019104 C4.69863335 -0.01303131 4.69863335 -0.01303131 6.35668945 -0.00683594 C8.03695976 -0.00970612 8.03695976 -0.00970612 9.75117493 -0.01263428 C12.11390407 -0.01399319 14.47664074 -0.01031729 16.83935547 -0.00195312 C20.46704723 0.00878041 24.09424715 -0.00187406 27.72192383 -0.01464844 C30.0168468 -0.01332738 32.31176947 -0.01076611 34.60668945 -0.00683594 C35.69624435 -0.0108844 36.78579926 -0.01493286 37.90837097 -0.019104 C39.41552422 -0.00964752 39.41552422 -0.00964752 40.953125 0 C42.28285591 0.00238678 42.28285591 0.00238678 43.63945007 0.00482178 C45.7824707 0.25878906 45.7824707 0.25878906 47.7824707 2.25878906 C48.0324707 5.25878906 48.0324707 5.25878906 47.7824707 8.25878906 C45.22606187 10.81519789 44.28513223 10.51149604 40.73779297 10.51757812 C39.68652725 10.52388245 38.63526154 10.53018677 37.55213928 10.53668213 C36.41256271 10.53263367 35.27298615 10.52858521 34.09887695 10.52441406 C32.34920876 10.52728424 32.34920876 10.52728424 30.56419373 10.5302124 C28.09357488 10.53157543 25.6229489 10.52787085 23.15234375 10.51953125 C19.36417578 10.50884325 15.57648312 10.51941793 11.78833008 10.53222656 C9.39184465 10.5309048 6.99535952 10.52834206 4.59887695 10.52441406 C3.46132462 10.52846252 2.32377228 10.53251099 1.15174866 10.53668213 C0.09733078 10.53037781 -0.9570871 10.52407349 -2.04345703 10.51757812 C-2.97230209 10.51598694 -3.90114716 10.51439575 -4.85813904 10.51275635 C-7.2175293 10.25878906 -7.2175293 10.25878906 -10.2175293 8.25878906 C-10.4050293 5.13378906 -10.4050293 5.13378906 -10.2175293 2.25878906 C-6.6648426 0.65097945 -3.89177921 0.00696673 0 0 Z " fill="#21A0E9" transform="translate(742.217529296875,957.7412109375)"/>
<path d="M0 0 C1.40564713 0.00666183 1.40564713 0.00666183 2.83969116 0.01345825 C3.90063995 0.01360931 4.96158875 0.01376038 6.0546875 0.01391602 C7.20367523 0.02423859 8.35266296 0.03456116 9.53646851 0.04519653 C10.71002899 0.04802643 11.88358948 0.05085632 13.0927124 0.05377197 C16.85271262 0.06499548 20.61247739 0.09010411 24.37240601 0.11550903 C26.91667341 0.12553602 29.46094453 0.13466236 32.00521851 0.14285278 C38.25269511 0.1649419 44.50003374 0.19844079 50.74740601 0.24050903 C52.87240601 5.86550903 52.87240601 5.86550903 51.74740601 9.24050903 C48.34350807 10.00670157 45.1999644 10.36665302 41.71347046 10.36990356 C40.73928665 10.37305573 39.76510284 10.37620789 38.76139832 10.37945557 C37.20179634 10.37641922 37.20179634 10.37641922 35.61068726 10.37332153 C33.99700508 10.37475662 33.99700508 10.37475662 32.35072327 10.3762207 C30.08215272 10.37690003 27.81358022 10.375063 25.54501343 10.37088013 C22.06230342 10.36551273 18.57972146 10.37084155 15.09701538 10.37722778 C12.89323905 10.37656727 10.68946281 10.37528665 8.48568726 10.37332153 C6.91697624 10.37635788 6.91697624 10.37635788 5.3165741 10.37945557 C4.35184677 10.37630341 3.38711945 10.37315125 2.39315796 10.36990356 C1.54220047 10.36910797 0.69124298 10.36831238 -0.1855011 10.36749268 C-2.25259399 10.24050903 -2.25259399 10.24050903 -4.25259399 9.24050903 C-4.37759399 5.86550903 -4.37759399 5.86550903 -4.25259399 2.24050903 C-2.25259399 0.24050903 -2.25259399 0.24050903 0 0 Z " fill="#22A1EB" transform="translate(214.25259399414063,957.7594909667969)"/>
<path d="M0 0 C1.34771484 -0.00386719 1.34771484 -0.00386719 2.72265625 -0.0078125 C4.9375 0.125 4.9375 0.125 5.9375 1.125 C6.03860353 4.0703557 6.07719279 6.9917756 6.0703125 9.9375 C6.07126923 10.82155518 6.07222595 11.70561035 6.07321167 12.61645508 C6.07389351 14.48942129 6.07203893 16.36238986 6.06787109 18.23535156 C6.06252289 21.11268388 6.06781593 23.98986008 6.07421875 26.8671875 C6.07355797 28.68229201 6.07227681 30.49739643 6.0703125 32.3125 C6.07233673 33.17915283 6.07436096 34.04580566 6.07644653 34.9387207 C6.05245009 41.01004991 6.05245009 41.01004991 4.9375 42.125 C3.1107966 42.38513181 1.27517093 42.58423072 -0.5625 42.75 C-1.5628125 42.84539063 -2.563125 42.94078125 -3.59375 43.0390625 C-4.4084375 43.06742188 -5.223125 43.09578125 -6.0625 43.125 C-7.0625 42.125 -7.0625 42.125 -7.17602539 38.24780273 C-7.17586621 36.51805833 -7.17016849 34.78830919 -7.16015625 33.05859375 C-7.1587413 32.14997086 -7.15732635 31.24134796 -7.15586853 30.30519104 C-7.15025193 27.39092779 -7.13769665 24.47674019 -7.125 21.5625 C-7.11998714 19.59179798 -7.11542386 17.62109476 -7.11132812 15.65039062 C-7.10027711 10.80856441 -7.08300138 5.96679505 -7.0625 1.125 C-4.56110398 -0.12569801 -2.78857309 -0.00802467 0 0 Z " fill="#FEFEFE" transform="translate(738.0625,877.875)"/>
<path d="M0 0 C1.19109375 0.00773438 1.19109375 0.00773438 2.40625 0.015625 C3.2003125 0.01046875 3.994375 0.0053125 4.8125 0 C6.90625 0.265625 6.90625 0.265625 8.90625 2.265625 C9.09393653 5.1948553 9.16178641 8.02790897 9.13671875 10.95703125 C9.13603142 12.24769753 9.13603142 12.24769753 9.1353302 13.56443787 C9.13230705 15.38436257 9.12441888 17.20428467 9.11206055 19.02416992 C9.09380148 21.82024224 9.09155085 24.61598366 9.09179688 27.41210938 C9.0868819 29.17708622 9.08105367 30.9420608 9.07421875 32.70703125 C9.07310593 33.54867325 9.0719931 34.39031525 9.07084656 35.25746155 C9.02229705 41.14957795 9.02229705 41.14957795 7.90625 42.265625 C6.26930348 42.55144106 4.62041318 42.77066006 2.96875 42.953125 C2.07285156 43.06011719 1.17695312 43.16710937 0.25390625 43.27734375 C-2.09375 43.265625 -2.09375 43.265625 -4.09375 41.265625 C-4.29373324 38.34813365 -4.37349887 35.52760571 -4.359375 32.609375 C-4.36128845 31.75130249 -4.3632019 30.89322998 -4.36517334 30.00915527 C-4.36653544 28.19343778 -4.36283728 26.37771055 -4.35449219 24.56201172 C-4.34379291 21.7767965 -4.35438653 18.99222632 -4.3671875 16.20703125 C-4.36586591 14.44531107 -4.36330353 12.68359129 -4.359375 10.921875 C-4.36342346 10.08539429 -4.36747192 9.24891357 -4.37164307 8.38708496 C-4.30779741 0.54651161 -4.30779741 0.54651161 0 0 Z " fill="#FEFFFE" transform="translate(589.09375,877.734375)"/>
<path d="M0 0 C1.64574566 -0.02688151 3.29161413 -0.04634123 4.9375 -0.0625 C5.85402344 -0.07410156 6.77054688 -0.08570313 7.71484375 -0.09765625 C10 0 10 0 11 1 C11.1011692 4.09081465 11.13968558 7.15882555 11.1328125 10.25 C11.13376923 11.17844727 11.13472595 12.10689453 11.13571167 13.06347656 C11.13639355 15.03059965 11.13453872 16.99772496 11.13037109 18.96484375 C11.12502295 21.98703026 11.13031582 25.00906815 11.13671875 28.03125 C11.13605797 29.93750033 11.13477681 31.84375057 11.1328125 33.75 C11.13483673 34.66040039 11.13686096 35.57080078 11.13894653 36.50878906 C11.11494969 42.88505031 11.11494969 42.88505031 10 44 C8.33570949 44.09823937 6.66718069 44.12973631 5 44.125 C3.63875 44.12886719 3.63875 44.12886719 2.25 44.1328125 C0 44 0 44 -1 43 C-1.10116109 39.99360697 -1.13968674 37.01066703 -1.1328125 34.00390625 C-1.13376923 33.1000267 -1.13472595 32.19614716 -1.13571167 31.26487732 C-1.1363936 29.34902884 -1.13453841 27.43317806 -1.13037109 25.51733398 C-1.12502919 22.57856058 -1.13031245 19.63994045 -1.13671875 16.70117188 C-1.13605785 14.84374966 -1.13477644 12.98632754 -1.1328125 11.12890625 C-1.13483673 10.24554092 -1.13686096 9.3621756 -1.13894653 8.45204163 C-1.11495408 2.22990815 -1.11495408 2.22990815 0 0 Z " fill="#FEFEFE" transform="translate(577,941)"/>
<path d="M0 0 C0.495 1.485 0.495 1.485 1 3 C-10.38414676 5.08297055 -21.78832258 6.89908487 -33.24072266 8.56292725 C-47.57923754 10.65129505 -61.85166487 12.83524083 -76 16 C-73.03 16.99 -70.06 17.98 -67 19 C-67.66 19.99 -68.32 20.98 -69 22 C-71.62986315 21.60462194 -74.25165938 21.18498127 -76.875 20.75 C-77.99455078 20.58564453 -77.99455078 20.58564453 -79.13671875 20.41796875 C-84.66252929 19.47210929 -84.66252929 19.47210929 -86.5078125 16.890625 C-86.75144531 15.95476563 -86.75144531 15.95476563 -87 15 C-83.57120571 12.71413714 -81.23609229 12.33381636 -77.1875 11.625 C-75.71871714 11.36476872 -74.24996891 11.10434193 -72.78125 10.84375 C-71.60755859 10.63878906 -71.60755859 10.63878906 -70.41015625 10.4296875 C-68.02938629 10.00523905 -65.65538377 9.55376278 -63.28125 9.09375 C-51.46281673 6.82978427 -39.59840546 5.0074558 -27.6875 3.3125 C-26.92633881 3.20399719 -26.16517761 3.09549438 -25.38095093 2.98370361 C-4.37110637 0 -4.37110637 0 0 0 Z " fill="#25A2E4" transform="translate(718,553)"/>
<path d="M0 0 C1.01422531 -0.00630432 2.02845062 -0.01260864 3.07341003 -0.019104 C4.69863335 -0.01303131 4.69863335 -0.01303131 6.35668945 -0.00683594 C8.03695976 -0.00970612 8.03695976 -0.00970612 9.75117493 -0.01263428 C12.11390407 -0.01399319 14.47664074 -0.01031729 16.83935547 -0.00195312 C20.46704723 0.00878041 24.09424715 -0.00187406 27.72192383 -0.01464844 C30.0168468 -0.01332738 32.31176947 -0.01076611 34.60668945 -0.00683594 C35.69624435 -0.0108844 36.78579926 -0.01493286 37.90837097 -0.019104 C39.41552422 -0.00964752 39.41552422 -0.00964752 40.953125 0 C42.28285591 0.00238678 42.28285591 0.00238678 43.63945007 0.00482178 C45.7824707 0.25878906 45.7824707 0.25878906 47.7824707 2.25878906 C48.0324707 5.25878906 48.0324707 5.25878906 47.7824707 8.25878906 C47.1224707 8.91878906 46.4624707 9.57878906 45.7824707 10.25878906 C44.7924707 10.25878906 43.8024707 10.25878906 42.7824707 10.25878906 C42.7824707 9.59878906 42.7824707 8.93878906 42.7824707 8.25878906 C43.4424707 8.25878906 44.1024707 8.25878906 44.7824707 8.25878906 C44.7824707 6.60878906 44.7824707 4.95878906 44.7824707 3.25878906 C27.6224707 3.25878906 10.4624707 3.25878906 -7.2175293 3.25878906 C-7.2175293 4.57878906 -7.2175293 5.89878906 -7.2175293 7.25878906 C-5.5675293 7.25878906 -3.9175293 7.25878906 -2.2175293 7.25878906 C-2.2175293 7.91878906 -2.2175293 8.57878906 -2.2175293 9.25878906 C12.3024707 9.25878906 26.8224707 9.25878906 41.7824707 9.25878906 C41.7824707 9.58878906 41.7824707 9.91878906 41.7824707 10.25878906 C34.85908119 10.30942743 27.93573929 10.34449655 21.01220703 10.36865234 C18.65606908 10.37872062 16.29994366 10.39237612 13.94384766 10.40966797 C10.56059684 10.43387982 7.17751098 10.44526384 3.79418945 10.45410156 C2.20969246 10.46958542 2.20969246 10.46958542 0.59318542 10.48538208 C-0.38760483 10.48553314 -1.36839508 10.4856842 -2.37890625 10.48583984 C-3.24272415 10.49028107 -4.10654205 10.49472229 -4.99653625 10.4992981 C-7.2175293 10.25878906 -7.2175293 10.25878906 -10.2175293 8.25878906 C-10.4050293 5.13378906 -10.4050293 5.13378906 -10.2175293 2.25878906 C-6.6648426 0.65097945 -3.89177921 0.00696673 0 0 Z " fill="#22CBF7" transform="translate(742.217529296875,957.7412109375)"/>
<path d="M0 0 C1.34244622 0.00503214 2.6848943 0.00959198 4.02734375 0.01367188 C7.2682781 0.02532991 10.50911369 0.04169226 13.75 0.0625 C13.75 0.3925 13.75 0.7225 13.75 1.0625 C11.77 1.0625 9.79 1.0625 7.75 1.0625 C7.75 1.7225 7.75 2.3825 7.75 3.0625 C-16.28842453 4.95591867 -40.13246697 6.27968477 -64.25 6.0625 C-64.91 4.7425 -65.57 3.4225 -66.25 2.0625 C-65.46310791 2.06757568 -64.67621582 2.07265137 -63.86547852 2.07788086 C-55.9615536 2.10654158 -48.08463482 1.94164155 -40.1875 1.625 C-39.10662109 1.58568359 -38.02574219 1.54636719 -36.91210938 1.50585938 C-31.7217845 1.3037197 -26.56605304 1.01995577 -21.39453125 0.53125 C-14.2632054 -0.09689787 -7.15379835 -0.04673336 0 0 Z " fill="#24A3E2" transform="translate(728.25,572.9375)"/>
<path d="M0 0 C0.99 0 1.98 0 3 0 C2.87882813 0.680625 2.75765625 1.36125 2.6328125 2.0625 C0.22134333 16.01192166 -1.28621836 29.87463703 -2 44 C4.42761157 38.80001998 4.42761157 38.80001998 9 32 C10.32 32.33 11.64 32.66 13 33 C9.38437331 37.77940654 5.68360284 42.48690002 1.8125 47.0625 C1.17957031 47.81660156 0.54664063 48.57070313 -0.10546875 49.34765625 C-2 51 -2 51 -6 51 C-5.38883035 5.38883035 -5.38883035 5.38883035 0 0 Z " fill="#27A4E1" transform="translate(731,684)"/>
<path d="M0 0 C0 0.33 0 0.66 0 1 C-1.06976074 1.06731323 -1.06976074 1.06731323 -2.16113281 1.13598633 C-35.13313138 1.13125546 -35.13313138 1.13125546 -65 12 C-66.99958364 12.04080783 -69.00045254 12.04254356 -71 12 C-70 9 -70 9 -68.26953125 8.0078125 C-45.78608583 -0.07050016 -23.63160274 -1.87712022 0 0 Z " fill="#22A2E4" transform="translate(613,581)"/>
<path d="M0 0 C3.25 2.3125 3.25 2.3125 5 5 C5 5.99 5 6.98 5 8 C1.125 6.25 1.125 6.25 0 4 C-8.60298304 3.47596042 -15.71794469 3.71862183 -22.62890625 9.3203125 C-26.41961513 13.27301749 -27 16.744361 -27 22 C-25.49717203 26.05763553 -24.61841259 27.58772494 -21 30 C-19.34450469 30.38499891 -17.6777567 30.72793135 -16 31 C-16.495 32.485 -16.495 32.485 -17 34 C-20.46475274 33.93070495 -23.0684222 33.80173399 -25.765625 31.48046875 C-29.03407938 27.71222644 -30.73015106 24.9274924 -31.4375 19.875 C-30.71669152 13.49069632 -27.08787181 9.08787181 -22.625 4.625 C-15.44741174 0.18173108 -8.39524266 -1.31288587 0 0 Z " fill="#2EA3E3" transform="translate(597,816)"/>
<path d="M0 0 C3.36344489 2.48602449 4.80057749 3.91425523 5.5625 8.0625 C5 11 5 11 3.5 13.375 C-0.24099229 15.80664499 -2.57426418 15.49174842 -7 15 C-9 14 -9 14 -10 12 C-10.75912409 5.16788321 -10.75912409 5.16788321 -8.375 1.5 C-5.23686002 -0.48198314 -3.65126535 -0.67064058 0 0 Z " fill="#FEFEFE" transform="translate(740,860)"/>
<path d="M0 0 C3.6875 0.3125 3.6875 0.3125 6.0625 2 C7.90671807 4.62446417 8.60919023 6.10179947 8.6875 9.3125 C6.49347015 13.90951493 6.49347015 13.90951493 3.6875 15.3125 C-2.55574324 15.76655405 -2.55574324 15.76655405 -5.1875 14.1875 C-6.80248958 11.49585071 -7.18706746 9.44831361 -7.3125 6.3125 C-4.43074176 0.41799451 -4.43074176 0.41799451 0 0 Z " fill="#FEFEFF" transform="translate(591.3125,859.6875)"/>
<path d="M0 0 C17.49 0 34.98 0 53 0 C55 6 55 6 54 9 C52.68 9 51.36 9 50 9 C50.33 7.02 50.66 5.04 51 3 C33.51 3.33 16.02 3.66 -2 4 C-1.34 2.68 -0.68 1.36 0 0 Z " fill="#43B6F9" transform="translate(212,958)"/>
<path d="M0 0 C0.99 0 1.98 0 3 0 C0.17581486 17.87411909 -4.10660824 32.12929497 -16 46 C-16.99 45.67 -17.98 45.34 -19 45 C-18.31292969 43.99839844 -17.62585938 42.99679687 -16.91796875 41.96484375 C-16.00750067 40.6226073 -15.09736192 39.28014742 -14.1875 37.9375 C-13.73568359 37.28072266 -13.28386719 36.62394531 -12.81835938 35.94726562 C-7.54643277 28.13557876 -5.09300828 20.13385515 -2.8125 11.0625 C-2.40354492 9.46438477 -2.40354492 9.46438477 -1.98632812 7.83398438 C-1.3191753 5.22389524 -0.65721707 2.61260526 0 0 Z " fill="#24A6E3" transform="translate(761,669)"/>
<path d="M0 0 C5.93923183 2.08675713 5.93923183 2.08675713 8 5 C8.26154123 7.65834628 8.34939122 10.07685104 8.29296875 12.73046875 C8.28872391 13.48088943 8.28447906 14.23131012 8.28010559 15.00447083 C8.2633245 17.39918026 8.2256749 19.79304534 8.1875 22.1875 C8.17245235 23.8118368 8.15876409 25.4361868 8.14648438 27.06054688 C8.11342305 31.04068948 8.06164594 35.02020163 8 39 C8.33 39 8.66 39 9 39 C9.125 41.375 9.125 41.375 9 44 C7 46 7 46 4.3125 46.6875 C-1.03799227 45.57702047 -3.02605951 41.3330386 -6 37 C-8.99704849 33.00393534 -12.11039519 30.09400382 -16 27 C-14.33984375 26.18359375 -14.33984375 26.18359375 -12 26 C-9.96110932 27.63172026 -8.3191431 29.16435204 -6.5625 31.0625 C-5.83172241 31.82216064 -5.83172241 31.82216064 -5.08618164 32.59716797 C-1.89564223 35.94259834 1.0800978 39.42076504 4 43 C4.66 43.33 5.32 43.66 6 44 C5.98054137 38.69733358 5.92870874 33.3963179 5.84741211 28.09423828 C5.82427646 26.29224654 5.80984681 24.49012043 5.80444336 22.68798828 C5.79512096 20.09062397 5.75406208 17.49535999 5.70703125 14.8984375 C5.7109639 14.0982016 5.71489655 13.2979657 5.71894836 12.47348022 C5.56874699 6.65955905 4.12331488 4.10322915 0 0 Z " fill="#2FA6EA" transform="translate(700,613)"/>
<path d="M0 0 C2 2 2 2 2.21850586 5.14428711 C1.99402226 9.10548207 1.37146769 12.83379439 0.50390625 16.69140625 C0.35090561 17.39974106 0.19790497 18.10807587 0.04026794 18.83787537 C-0.44556488 21.08095219 -0.94113514 23.32173272 -1.4375 25.5625 C-1.92825729 27.80723785 -2.41697132 30.05240737 -2.90455627 32.2978363 C-3.20723249 33.68852338 -3.51206587 35.07874338 -3.81944275 36.46839905 C-4.66068302 40.29796719 -5.3898392 44.12691919 -6 48 C-6.99 47.67 -7.98 47.34 -9 47 C-8.41452431 39.41417966 -7.15465309 32.07295375 -5.625 24.625 C-5.41617188 23.57828125 -5.20734375 22.5315625 -4.9921875 21.453125 C-3.53309974 14.24665498 -1.84050528 7.11821394 0 0 Z " fill="#24A3E5" transform="translate(771,620)"/>
<path d="M0 0 C0.66 0.33 1.32 0.66 2 1 C1.6868299 3.93596964 1.12909951 4.8865633 -1.125 6.8671875 C-2.548125 7.86105469 -2.548125 7.86105469 -4 8.875 C-10.37786646 13.46245334 -16.39247169 18.40129349 -22.38671875 23.47802734 C-23.43666016 24.3570874 -23.43666016 24.3570874 -24.5078125 25.25390625 C-25.13316895 25.78314697 -25.75852539 26.3123877 -26.40283203 26.85766602 C-28 28 -28 28 -30 28 C-29.27505765 21.46041586 -21.78847843 16.97058539 -17 13 C-11.42042068 8.55293372 -5.72522398 4.25719167 0 0 Z " fill="#26A2E3" transform="translate(751,584)"/>
<path d="M0 0 C0.66 0.33 1.32 0.66 2 1 C-0.33333333 12.66666667 -2.66666667 24.33333333 -5 36 C-6.98 36.495 -6.98 36.495 -9 37 C-8.80664062 36.14019531 -8.61328125 35.28039062 -8.4140625 34.39453125 C-7.07809442 28.32976528 -5.85801141 22.33900554 -5 16.1875 C-3.0926755 3.0926755 -3.0926755 3.0926755 0 0 Z " fill="#279DE3" transform="translate(785,558)"/>
<path d="M0 0 C9.57 0.33 19.14 0.66 29 1 C29 1.33 29 1.66 29 2 C39.89 2.495 39.89 2.495 51 3 C51 3.33 51 3.66 51 4 C44.05827612 4.02529373 37.11656406 4.04284304 30.17480469 4.05493164 C27.81184444 4.05996959 25.44888732 4.06680008 23.0859375 4.07543945 C19.69530465 4.08752854 16.30471291 4.09323359 12.9140625 4.09765625 C11.85256989 4.10281754 10.79107727 4.10797882 9.69741821 4.11329651 C8.71655243 4.11337204 7.73568665 4.11344757 6.72509766 4.11352539 C5.42603989 4.11685631 5.42603989 4.11685631 4.10073853 4.12025452 C2 4 2 4 0 3 C0 2.01 0 1.02 0 0 Z " fill="#19CFF5" transform="translate(210,964)"/>
<path d="M0 0 C-0.33 0.66 -0.66 1.32 -1 2 C-3.64 2 -6.28 2 -9 2 C-9 3.32 -9 4.64 -9 6 C-7.35 6 -5.7 6 -4 6 C-4 6.66 -4 7.32 -4 8 C10.52 8 25.04 8 40 8 C40 8.33 40 8.66 40 9 C33.07661048 9.05063836 26.15326859 9.08570749 19.22973633 9.10986328 C16.87359838 9.11993155 14.51747296 9.13358706 12.16137695 9.15087891 C8.77812614 9.17509076 5.39504028 9.18647478 2.01171875 9.1953125 C0.42722176 9.21079636 0.42722176 9.21079636 -1.18928528 9.22659302 C-2.17007553 9.22674408 -3.15086578 9.22689514 -4.16137695 9.22705078 C-5.02519485 9.231492 -5.88901276 9.23593323 -6.77900696 9.24050903 C-9 9 -9 9 -12 7 C-12.1875 3.875 -12.1875 3.875 -12 1 C-7.67265609 -1.22923777 -4.71599818 -0.92470553 0 0 Z " fill="#1AE9FC" transform="translate(744,959)"/>
<path d="M0 0 C2 3 2 3 2.1875 5.6875 C-0.47639979 13.11837837 -8.6981288 17.67719415 -14.95703125 22.06640625 C-17 23 -17 23 -19.26171875 22.65234375 C-19.83535156 22.43707031 -20.40898438 22.22179687 -21 22 C-18.46510958 19.91244318 -15.94987879 17.96769967 -13.1875 16.1875 C-5.1749243 10.99902928 -5.1749243 10.99902928 -0.5 3.0625 C-0.335 2.051875 -0.17 1.04125 0 0 Z " fill="#2DA4E5" transform="translate(603,825)"/>
<path d="M0 0 C-0.33 3.3 -0.66 6.6 -1 10 C-1.99 9.67 -2.98 9.34 -4 9 C-4 7.02 -4 5.04 -4 3 C-11.92 3.495 -11.92 3.495 -20 4 C-20 3.34 -20 2.68 -20 2 C-20.66 1.67 -21.32 1.34 -22 1 C-14.63512596 0.00137301 -7.42686315 -0.10331031 0 0 Z " fill="#23A7EA" transform="translate(789,545)"/>
<path d="M0 0 C1.32 0.33 2.64 0.66 4 1 C0.38437331 5.77940654 -3.31639716 10.48690002 -7.1875 15.0625 C-7.82042969 15.81660156 -8.45335937 16.57070313 -9.10546875 17.34765625 C-11 19 -11 19 -15 19 C-15 17.35 -15 15.7 -15 14 C-14.34 13.67 -13.68 13.34 -13 13 C-13 13.66 -13 14.32 -13 15 C-12.01 15 -11.02 15 -10 15 C-10 14.34 -10 13.68 -10 13 C-9.34 13 -8.68 13 -8 13 C-7.896875 12.41476562 -7.79375 11.82953125 -7.6875 11.2265625 C-6.89217247 8.65078584 -5.81181388 7.35231611 -4 5.375 C-1.72782776 2.87625688 -1.72782776 2.87625688 0 0 Z " fill="#32A8EB" transform="translate(740,716)"/>
<path d="M0 0 C0.33 0.66 0.66 1.32 1 2 C0.3503125 2.7734375 0.3503125 2.7734375 -0.3125 3.5625 C-2.40319031 6.582386 -3.62526065 9.5958835 -5 13 C-5.66 13 -6.32 13 -7 13 C-7.2475 13.680625 -7.495 14.36125 -7.75 15.0625 C-11.75862069 24.48275862 -11.75862069 24.48275862 -15.25 25.9375 C-15.8275 25.958125 -16.405 25.97875 -17 26 C-13.19887354 16.07483646 -6.70050097 8.14604052 0 0 Z " fill="#22A4E5" transform="translate(484,631)"/>
<path d="M0 0 C5.93102204 2.08387261 5.93102204 2.08387261 8 5 C8.24972967 7.61352422 8.32565114 9.98253224 8.2578125 12.58984375 C8.25119598 13.33077774 8.24457947 14.07171173 8.23776245 14.83509827 C8.21436257 17.20298826 8.17067324 19.56994367 8.125 21.9375 C8.08987986 24.30137382 8.05906434 26.66519188 8.03366089 29.02919006 C8.01675557 30.49952342 7.99367282 31.96980206 7.96365356 33.43992615 C7.91499416 36.78434375 7.94591385 39.80431931 9 43 C8.01 42.67 7.02 42.34 6 42 C5.99589111 40.94087402 5.99178223 39.88174805 5.98754883 38.79052734 C5.96569717 34.84277373 5.91134636 30.8960083 5.84741211 26.94873047 C5.8242844 25.24374904 5.80984867 23.53862581 5.80444336 21.83349609 C5.79511488 19.37508313 5.75404475 16.91888422 5.70703125 14.4609375 C5.7109639 13.70444916 5.71489655 12.94796082 5.71894836 12.16854858 C5.56431275 6.49820622 3.99130213 4.01629985 0 0 Z " fill="#2D9FE1" transform="translate(700,613)"/>
<path d="M0 0 C0 0.33 0 0.66 0 1 C-15.84 1.99 -15.84 1.99 -32 3 C-24.4799949 -4.5200051 -9.95681143 -0.76172328 0 0 Z " fill="#299DDF" transform="translate(613,581)"/>
<path d="M0 0 C5.92618901 0.30390713 10.66411232 3.08035754 15 7 C16.265625 9.703125 16.265625 9.703125 17 12 C14.3725162 10.71319131 11.74803317 9.42082322 9.125 8.125 C8.37863281 7.76019531 7.63226562 7.39539063 6.86328125 7.01953125 C6.14785156 6.66503906 5.43242188 6.31054688 4.6953125 5.9453125 C4.03547363 5.62062988 3.37563477 5.29594727 2.69580078 4.96142578 C1 4 1 4 -1 2 C-0.67 1.34 -0.34 0.68 0 0 Z " fill="#24A1E4" transform="translate(657,620)"/>
<path d="M0 0 C1.60495567 0.11442461 3.20898119 0.24194694 4.8125 0.375 C5.70582031 0.44460938 6.59914063 0.51421875 7.51953125 0.5859375 C10 1 10 1 13 3 C13 3.66 13 4.32 13 5 C14.32 5 15.64 5 17 5 C17 5.66 17 6.32 17 7 C10.64391825 7.61510469 4.53695185 4.88775267 -1 2 C-0.67 1.34 -0.34 0.68 0 0 Z " fill="#249FE5" transform="translate(645,585)"/>
<path d="M0 0 C2.375 1.0625 2.375 1.0625 5 3 C6.3125 6.6875 6.3125 6.6875 7 10 C7.66 10 8.32 10 9 10 C8.67 10.99 8.34 11.98 8 13 C7.01 13.33 6.02 13.66 5 14 C4.15973604 12.23244474 3.32801278 10.46082737 2.5 8.6875 C2.0359375 7.70136719 1.571875 6.71523438 1.09375 5.69921875 C0 3 0 3 0 0 Z " fill="#22A4E9" transform="translate(710,600)"/>
<path d="M0 0 C0.66 0.33 1.32 0.66 2 1 C1.01 6.61 0.02 12.22 -1 18 C-1.66 18 -2.32 18 -3 18 C-3.08150744 15.93816367 -3.1394194 13.87538651 -3.1875 11.8125 C-3.22230469 10.66394531 -3.25710938 9.51539063 -3.29296875 8.33203125 C-2.97622579 4.72960801 -2.08533398 2.90633161 0 0 Z " fill="#1DA3E5" transform="translate(785,558)"/>
<path d="M0 0 C0 0.33 0 0.66 0 1 C-4.70461323 2.86132673 -8.8757696 3.2509496 -13.875 3.125 C-14.56335938 3.11597656 -15.25171875 3.10695313 -15.9609375 3.09765625 C-17.64077838 3.07432513 -19.32043746 3.03846326 -21 3 C-21 2.34 -21 1.68 -21 1 C-13.98441385 0.4011085 -7.04321257 -0.13810221 0 0 Z " fill="#31C2F7" transform="translate(260,958)"/>
<path d="M0 0 C3.3 0.99 6.6 1.98 10 3 C10 4.32 10 5.64 10 7 C6.37 5.68 2.74 4.36 -1 3 C-0.67 2.01 -0.34 1.02 0 0 Z " fill="#229CE3" transform="translate(645,615)"/>
<path d="M0 0 C0.886875 0.639375 1.77375 1.27875 2.6875 1.9375 C5.69211428 3.80829757 7.5510371 4.59423966 11 5 C10.67 5.99 10.34 6.98 10 8 C3.6 7.63076923 3.6 7.63076923 0.5625 4.4375 C0.046875 3.633125 -0.46875 2.82875 -1 2 C-0.67 1.34 -0.34 0.68 0 0 Z " fill="#35B2EE" transform="translate(570,842)"/>
<path d="M0 0 C1.79133978 -0.05391993 3.58313899 -0.09275571 5.375 -0.125 C6.37273438 -0.14820313 7.37046875 -0.17140625 8.3984375 -0.1953125 C11 0 11 0 13 2 C11.04310963 2.36205464 9.08442332 2.71441421 7.125 3.0625 C6.03445313 3.25972656 4.94390625 3.45695313 3.8203125 3.66015625 C1 4 1 4 -1 3 C-0.67 2.01 -0.34 1.02 0 0 Z " fill="#2C9EDF" transform="translate(713,573)"/>
<path d="M0 0 C2.97 0.495 2.97 0.495 6 1 C6.33 2.98 6.66 4.96 7 7 C5.35 7 3.7 7 2 7 C2 6.34 2 5.68 2 5 C1.34 5 0.68 5 0 5 C0 3.35 0 1.7 0 0 Z " fill="#E3DFD7" transform="translate(503,883)"/>
<path d="M0 0 C0.66 0 1.32 0 2 0 C2 1.98 2 3.96 2 6 C2.66 6 3.32 6 4 6 C4 6.66 4 7.32 4 8 C4.66 8.33 5.32 8.66 6 9 C5.67 10.65 5.34 12.3 5 14 C4.34 13.67 3.68 13.34 3 13 C2.66666667 11.66666667 2.33333333 10.33333333 2 9 C1.34 8.67 0.68 8.34 0 8 C0 5.36 0 2.72 0 0 Z " fill="#F8F0E5" transform="translate(501,882)"/>
<path d="M0 0 C3.63 0.33 7.26 0.66 11 1 C10.67 1.66 10.34 2.32 10 3 C7.27734375 3.4140625 7.27734375 3.4140625 3.9375 3.625 C2.83277344 3.69976563 1.72804687 3.77453125 0.58984375 3.8515625 C-0.26480469 3.90054688 -1.11945313 3.94953125 -2 4 C-1.34 2.68 -0.68 1.36 0 0 Z " fill="#4DBBF7" transform="translate(212,958)"/>
<path d="M0 0 C0.33 0.66 0.66 1.32 1 2 C1.99 2 2.98 2 4 2 C4 1.34 4 0.68 4 0 C5.32 0.33 6.64 0.66 8 1 C5.75 3.5 5.75 3.5 3 6 C1.68 6 0.36 6 -1 6 C-1.042721 4.33388095 -1.04063832 2.66617115 -1 1 C-0.67 0.67 -0.34 0.34 0 0 Z " fill="#66B9F0" transform="translate(726,729)"/>
<path d="M0 0 C2.475 0.495 2.475 0.495 5 1 C5.125 3.875 5.125 3.875 5 7 C4.34 7.66 3.68 8.32 3 9 C2.01 9 1.02 9 0 9 C0 8.34 0 7.68 0 7 C0.66 7 1.32 7 2 7 C2 5.02 2 3.04 2 1 C1.34 0.67 0.68 0.34 0 0 Z " fill="#40BEFD" transform="translate(785,959)"/>
<path d="M0 0 C2.6875 -0.3125 2.6875 -0.3125 5 0 C1.88983545 3.28788824 -1.01618925 5.83735988 -5 8 C-5 7.34 -5 6.68 -5 6 C-4.34 5.67 -3.68 5.34 -3 5 C-2.566875 4.154375 -2.13375 3.30875 -1.6875 2.4375 C-1.130625 1.633125 -0.57375 0.82875 0 0 Z " fill="#2D98D9" transform="translate(719,591)"/>
<path d="M0 0 C2.31 0.33 4.62 0.66 7 1 C5.88671875 2.51953125 5.88671875 2.51953125 4 4 C1.08203125 4.07421875 1.08203125 4.07421875 -2.1875 3.6875 C-3.27417969 3.56761719 -4.36085938 3.44773437 -5.48046875 3.32421875 C-6.31191406 3.21722656 -7.14335938 3.11023438 -8 3 C-8 2.67 -8 2.34 -8 2 C-5.36 2 -2.72 2 0 2 C0 1.34 0 0.68 0 0 Z " fill="#21AAEC" transform="translate(624,610)"/>
<path d="M0 0 C3.96 1.98 3.96 1.98 8 4 C8 4.99 8 5.98 8 7 C5.25851328 6.62952882 3.41406801 6.31412056 1.1875 4.625 C0 3 0 3 0 0 Z " fill="#1EA3E0" transform="translate(668,591)"/>
<path d="M0 0 C2.31 0.33 4.62 0.66 7 1 C7 1.66 7 2.32 7 3 C7.99 3.33 8.98 3.66 10 4 C6.7 4 3.4 4 0 4 C0 2.68 0 1.36 0 0 Z " fill="#38A1E0" transform="translate(632,567)"/>
<path d="M0 0 C0.99 0 1.98 0 3 0 C3 0.99 3 1.98 3 3 C4.65 3 6.3 3 8 3 C8 3.66 8 4.32 8 5 C5.69 5 3.38 5 1 5 C0.67 3.35 0.34 1.7 0 0 Z " fill="#48B6EF" transform="translate(732,962)"/>
<path d="M0 0 C2 3 2 3 1.625 6.1875 C1.41875 7.115625 1.2125 8.04375 1 9 C-0.32 8.67 -1.64 8.34 -3 8 C-2.01 5.36 -1.02 2.72 0 0 Z " fill="#2BABED" transform="translate(603,825)"/>
<path d="M0 0 C2.31 0 4.62 0 7 0 C7 0.66 7 1.32 7 2 C8.32 2 9.64 2 11 2 C11 2.66 11 3.32 11 4 C6.55129785 4.39253254 3.85756507 3.15305957 0 1 C0 0.67 0 0.34 0 0 Z " fill="#2D9CDE" transform="translate(651,588)"/>
<path d="M0 0 C0.33 0 0.66 0 1 0 C1 2.64 1 5.28 1 8 C-0.65 8.66 -2.3 9.32 -4 10 C-3.625 7.5625 -3.625 7.5625 -3 5 C-2.34 4.67 -1.68 4.34 -1 4 C-0.34786708 1.97536745 -0.34786708 1.97536745 0 0 Z " fill="#22A5E4" transform="translate(746,624)"/>
<path d="M0 0 C1.65 0.33 3.3 0.66 5 1 C3 4 3 4 -0.125 4.6875 C-1.07375 4.790625 -2.0225 4.89375 -3 5 C-2.01 3.35 -1.02 1.7 0 0 Z " fill="#2DA6E6" transform="translate(522,600)"/>
<path d="M0 0 C1.98 0 3.96 0 6 0 C5.67 1.65 5.34 3.3 5 5 C2.5 3.625 2.5 3.625 0 2 C0 1.34 0 0.68 0 0 Z " fill="#238FD1" transform="translate(736,574)"/>
<path d="M0 0 C2.375 0.25 2.375 0.25 5 1 C6.3125 3.0625 6.3125 3.0625 7 5 C4.11424181 4.60196439 3.17810487 4.20990931 1.25 1.9375 C0.8375 1.298125 0.425 0.65875 0 0 Z " fill="#1CB0EA" transform="translate(684,639)"/>
<path d="M0 0 C1.65 1.65 3.3 3.3 5 5 C4.67 5.66 4.34 6.32 4 7 C2.68 6.34 1.36 5.68 0 5 C0 3.35 0 1.7 0 0 Z " fill="#30B3E9" transform="translate(598,817)"/>
<path d="M0 0 C0 0.99 0 1.98 0 3 C1.32 3.66 2.64 4.32 4 5 C0.44219804 4.39009109 -2.6828589 3.4216319 -6 2 C-3 0 -3 0 0 0 Z " fill="#2A9ADB" transform="translate(668,591)"/>
<path d="M0 0 C0.66 0.33 1.32 0.66 2 1 C-0.625 5.875 -0.625 5.875 -4 7 C-2.92598892 4.08482708 -2.22189824 2.22189824 0 0 Z " fill="#2A97D6" transform="translate(729,583)"/>
<path d="M0 0 C2.3125 -0.1875 2.3125 -0.1875 5 0 C5.99 0.99 6.98 1.98 8 3 C5.03 3 2.06 3 -1 3 C-0.67 2.01 -0.34 1.02 0 0 Z " fill="#2CA5E4" transform="translate(672,559)"/>
<path d="M0 0 C0.99 0 1.98 0 3 0 C3 1.32 3 2.64 3 4 C1.02 4 -0.96 4 -3 4 C-1.6875 2 -1.6875 2 0 0 Z " fill="#21A5E4" transform="translate(752,548)"/>
<path d="M0 0 C2.1875 0.3125 2.1875 0.3125 4 1 C2.35 2.32 0.7 3.64 -1 5 C-1.66 4.34 -2.32 3.68 -3 3 C-1.75 1.4375 -1.75 1.4375 0 0 Z " fill="#2FA8E2" transform="translate(599,834)"/>
<path d="M0 0 C3 3.625 3 3.625 3 7 C2.01 7.33 1.02 7.66 0 8 C0 5.36 0 2.72 0 0 Z " fill="#2B9CE0" transform="translate(765,645)"/>
<path d="M0 0 C2.97 0.495 2.97 0.495 6 1 C6 1.66 6 2.32 6 3 C3.625 3.625 3.625 3.625 1 4 C0.34 3.34 -0.32 2.68 -1 2 C-0.67 1.34 -0.34 0.68 0 0 Z " fill="#28A9E5" transform="translate(657,620)"/>
<path d="M0 0 C1.231394 3.69418201 0.64432764 6.2056261 0 10 C-1.20628008 7.66785852 -2.1654738 5.50357861 -3 3 C-2.34 3 -1.68 3 -1 3 C-0.67 2.01 -0.34 1.02 0 0 Z " fill="#2899D6" transform="translate(755,585)"/>
<path d="" fill="#FFFFFF" transform="translate(0,0)"/>
<path d="" fill="#8080FF" transform="translate(0,0)"/>
<path d="" fill="#FFFFFF" transform="translate(0,0)"/>
</svg>
